<?xml version="1.0" standalone="no"?>
<!DOCTYPE svg PUBLIC "-//W3C//DTD SVG 1.1//EN" "http://www.w3.org/Graphics/SVG/1.1/DTD/svg11.dtd" >
<svg>
<metadata>
Created by FontForge 20090914 at Sun May  6 07:40:07 2012
 By www-data
&#194;&#169; 1991 Bigelow &#38; Holmes. All Rights Reserved. &#194;&#169; 1990-1991 Type Solutions, Inc. All Rights Reserved.
</metadata>
<defs>
<font id="LucidaCalligraphy-Italic" horiz-adv-x="1295" >
  <font-face 
    font-family="Lucida Calligraphy"
    font-weight="400"
    font-style="italic"
    font-stretch="normal"
    units-per-em="2048"
    panose-1="3 1 1 1 1 1 1 1 1 1"
    ascent="1638"
    descent="-410"
    x-height="1110"
    cap-height="1480"
    bbox="-593 -666 2636 1962"
    underline-thickness="100"
    underline-position="-150"
    slope="-11.25"
    unicode-range="U+0020-U+F002"
  />
<missing-glyph horiz-adv-x="1024" 
d="M102 0v1092h820v-1092h-820zM204 102h616v888h-616v-888z" />
    <glyph glyph-name=".notdef" horiz-adv-x="1024" 
d="M102 0v1092h820v-1092h-820zM204 102h616v888h-616v-888z" />
    <glyph glyph-name="space" unicode=" " horiz-adv-x="680" 
 />
    <glyph glyph-name="exclam" unicode="!" horiz-adv-x="518" 
d="M163 127l156 120l117 -161l-155 -111zM319 386l87 795l60 299l204 37l-67 -336l-228 -776z" />
    <glyph glyph-name="quotedbl" unicode="&#x22;" horiz-adv-x="765" 
d="M463 1086l-68 493h197l-67 -493h-62zM808 1086l-68 493h198l-68 -493h-62z" />
    <glyph glyph-name="numbersign" unicode="#" 
d="M195 0l215 456h-242l13 99h275l175 370h-370l13 99h403l215 456h112l-215 -456h279l215 456h112l-215 -456h242l-13 -99h-276l-174 -370h369l-13 -99h-402l-216 -456h-111l215 456h-280l-215 -456h-111zM568 555h279l175 370h-280z" />
    <glyph glyph-name="dollar" unicode="$" horiz-adv-x="1044" 
d="M483 -148l31.002 149.998c-19.333 -1.33301 -33.333 -2 -42 -2c-126.667 0 -243.334 17.667 -350.001 53l124 127c95.333 -63.333 189.666 -98 282.999 -104l78 391l-67 44c-120.667 81.333 -181 165.333 -181 252c0 80 32.5 147.833 97.5 203.5
s155.5 92.834 271.5 111.501l31 156h62l-31 -148c88.667 0 181 -18 277 -54l-54 -218h-61c5.33301 23.333 8 42 8 56c0 84.667 -61 132.334 -183 143.001l-77 -388l56 -41c76 -55.333 125.333 -98 148 -128s34 -68 34 -114c0 -76 -33 -144.333 -99 -205
s-153.333 -103 -262 -127l-32 -158h-62zM646.002 662.998l69 348c-136.667 -16 -205 -73 -205 -171c0 -44 34 -93.667 102 -149zM592.002 81.998c129.333 22 194 82 194 180c0 50.667 -30.333 97 -91 139l-35 25z" />
    <glyph glyph-name="percent" unicode="%" horiz-adv-x="1554" 
d="M535 740c-75.333 0 -135.833 23.999 -181.5 71.999s-68.5 111.667 -68.5 191c0 132 37.667 244.5 113 337.5s166.333 139.5 273 139.5c78 0 140.167 -23.667 186.5 -71s69.5 -111.333 69.5 -192c0 -133.333 -38 -246.166 -114 -338.499s-168.667 -138.5 -278 -138.5z
M432 993.999c0 -128 40.333 -192 121 -192c60.667 0 115.667 43.333 165 130s74 184 74 292c0 130.667 -40.333 196 -121 196c-62 0 -117.333 -43.5 -166 -130.5s-73 -185.5 -73 -295.5zM1180 -0.000976562c-75.333 0 -135.833 24 -181.5 72s-68.5 111.667 -68.5 191
c0 131.333 37.667 243.666 113 336.999s166 140 272 140c78.667 0 141.167 -23.667 187.5 -71s69.5 -111.333 69.5 -192c0 -133.333 -38 -246.166 -114 -338.499s-168.667 -138.5 -278 -138.5zM1077 251.999c0 -127.333 40.333 -191 121 -191
c61.333 0 116.5 43.5 165.5 130.5s73.5 184.5 73.5 292.5c0 130.667 -40.333 196 -121 196c-62 0 -117.333 -43.5 -166 -130.5s-73 -186.167 -73 -297.5zM182 -37.001l1362 1554h131l-1362 -1554h-131z" />
    <glyph glyph-name="ampersand" unicode="&#x26;" horiz-adv-x="1678" 
d="M1024 136c-143.333 -115.333 -284 -173 -422 -173c-115.333 0 -211.5 37.667 -288.5 113s-115.5 169.666 -115.5 282.999c0 214 157 384.667 471 512c-36 100.667 -54 179.667 -54 237c0 104.667 44.5 199.167 133.5 283.5s189.167 126.5 300.5 126.5
c78.667 0 142.334 -22.667 191.001 -68s73 -104.666 73 -177.999c0 -183.333 -147.667 -321.333 -443 -414c85.333 -228.667 180.333 -414 285 -556c103.333 108 163.666 229.333 180.999 364h-206l95 148h265c131.333 0 232.666 21.667 303.999 65l-78 -123
c-78.667 -60 -153 -90 -223 -90h-32c-52 -160 -142.333 -298 -271 -414c94.667 -118.667 172.667 -178 234 -178c52 0 121.667 29 209 87l32 21l-15 -74c-117.333 -96.667 -227.666 -145 -330.999 -145c-60 0 -108.667 11 -146 33s-87 68.667 -149 140zM851 917
c198.667 78 298.001 199.001 298.001 363.001c0 117.333 -48.333 176 -145 176c-60.667 0 -109.834 -24.833 -147.501 -74.5s-56.5 -114.834 -56.5 -195.501c0 -73.333 17 -163 51 -269zM991.001 187.001c-119.333 175.333 -221.333 384.333 -306 627
c-185.333 -84 -278 -216 -278 -396c0 -95.333 28.833 -174.5 86.5 -237.5s130.5 -94.5 218.5 -94.5c78.667 0 171.667 33.667 279 101z" />
    <glyph glyph-name="quotesingle" unicode="'" horiz-adv-x="469" 
d="M451 1036l-93 543h247l-93 -543h-61z" />
    <glyph glyph-name="parenleft" unicode="(" horiz-adv-x="722" 
d="M541 -241l-12.002 -55.001c-198 152.667 -297 393.667 -297 723c0 255.333 67 507.333 201 756s300.667 430 500 544l-16 -80c-119.333 -96.667 -216.666 -226.667 -291.999 -390c-63.333 -137.333 -116.666 -302.666 -159.999 -495.999s-65 -362.333 -65 -507
c0 -205.333 47 -370.333 141 -495z" />
    <glyph glyph-name="parenright" unicode=")" horiz-adv-x="722" 
d="M469 1672l12.002 55.001c198 -152.667 297 -393.334 297 -722.001c0 -256 -67 -508.333 -201 -757s-300.667 -430 -500 -544l16 80c119.333 96.667 216.666 226.667 291.999 390c63.333 136.667 116.666 302 159.999 496s65 363 65 507c0 204.667 -47 369.667 -141 495z
" />
    <glyph glyph-name="asterisk" unicode="*" horiz-adv-x="1042" 
d="M606 691l63 317l-240 -206h-97l302 259h-300l33 86h302l-208 247h86l160 -192l54 278l118 37l-58 -302l222 179h101l-306 -247h309l-36 -86h-290l206 -259h-84l-163 206l-56 -280z" />
    <glyph glyph-name="plus" unicode="+" 
d="M602 49l97 488h-487l22 111h487l97 487h111l-97 -487h488l-22 -111h-488l-97 -488h-111z" />
    <glyph glyph-name="comma" unicode="," horiz-adv-x="580" 
d="M144 177l198.998 144l147 -196c-7.33301 -134.667 -49.166 -238.5 -125.499 -311.5s-181.166 -109.5 -314.499 -109.5l56 62c104 10 166.333 79.667 187 209z" />
    <glyph glyph-name="hyphen" unicode="-" horiz-adv-x="642" 
d="M195 543l42 148h456l-42 -148h-456z" />
    <glyph glyph-name="period" unicode="." horiz-adv-x="580" 
d="M146 179l196 142l152 -195l-201 -151z" />
    <glyph glyph-name="slash" unicode="/" horiz-adv-x="1091" 
d="M-59 -296l1274 2023h132l-1272 -2023h-134z" />
    <glyph glyph-name="zero" unicode="0" horiz-adv-x="1360" 
d="M683 -25c-134.667 0 -241.168 38.835 -319.501 116.502s-117.5 183.167 -117.5 316.5c0 195.333 62.5 361.166 187.5 497.499s276.833 204.5 455.5 204.5c138.667 0 247.5 -37.833 326.5 -113.5s118.5 -179.834 118.5 -312.501c0 -199.333 -62.667 -367.333 -188 -504
s-279.666 -205 -462.999 -205zM695.999 37.002c114.667 0 204.667 41.998 270 125.998c44.667 56.667 83.834 143.834 117.501 261.501s50.5 225.5 50.5 323.5c0 200.667 -85 301 -255 301c-126.667 0 -230.334 -67.667 -311.001 -203s-121 -308.666 -121 -519.999
c0 -192.667 83 -289 249 -289z" />
    <glyph glyph-name="one" unicode="1" horiz-adv-x="888" 
d="M148 0l26.999 61.999h70c61.333 0 99.333 9.5 114 28.5s34.334 84.833 59.001 197.5l99 499c14 72 21 120.667 21 146c0 30.667 -29.333 48.334 -88 53.001l-91 7l-1 62l433 55l-76 -320l-98 -494c-20 -104.667 -30 -161.667 -30 -171c0 -42 28.667 -63 86 -63h89l3 -62
h-617z" />
    <glyph glyph-name="two" unicode="2" horiz-adv-x="1164" 
d="M123 0l54 159.998c501.333 268 752 494 752 678c0 59.333 -21.167 109.333 -63.5 150s-94.5 61 -156.5 61c-160.667 0 -262 -74 -304 -222h-61l31 229c140.667 36 261 54 361 54c124 0 222.5 -23.5 295.5 -70.5s109.5 -110.167 109.5 -189.5
c0 -85.333 -34.333 -159.666 -103 -222.999s-232.667 -171.666 -492 -324.999l-242 -142h755l-63 -160h-873z" />
    <glyph glyph-name="three" unicode="3" horiz-adv-x="1097" 
d="M38 -242l131 133.004c101.333 -92 204.666 -138 309.999 -138c87.333 0 162.333 30.333 225 91s94 133 94 217c0 92 -38 166.833 -114 224.5s-174.667 86.5 -296 86.5c-21.333 0 -49 -2 -83 -6l70 154c60.667 0 119 -2.33301 175 -7
c94.667 23.333 173.334 66.166 236.001 128.499s94 128.166 94 197.499c0 61.333 -21 111.666 -63 150.999s-96 59 -162 59c-152 0 -247.333 -74 -286 -222h-62l33 224c144 39.333 268 59 372 59c109.333 0 197.166 -20.833 263.499 -62.5s99.5 -96.834 99.5 -165.501
c0 -147.333 -136 -277 -408 -389c206.667 -64 310 -181 310 -351c0 -123.333 -57.167 -231.333 -171.5 -324s-248.166 -139 -401.499 -139c-126.667 0 -248.667 26.333 -366 79z" />
    <glyph glyph-name="four" unicode="4" horiz-adv-x="1337" 
d="M809 40l-746 31.001l17 83l1010 932l104 24l-187 -943l298 -13l-45 -134l-279 13c-14.667 -102.667 -22 -173.334 -22 -212.001c0 -36.667 25.667 -55 77 -55h87l5 -62h-600l28 62h87c48.667 0 80.5 12.333 95.5 37s38.5 103.667 70.5 237zM836 174.001l141 708
l-757 -680z" />
    <glyph glyph-name="five" unicode="5" horiz-adv-x="1109" 
d="M51 -241l123 129c74.667 -82 170.667 -123 288 -123c106.667 0 194.167 37.333 262.5 112s102.5 170.667 102.5 288c0 186 -128.333 279 -385 279c-48 0 -101.667 -5.33301 -161 -16l131 658h777l-68 -173h-652l-88 -308c50 8.66699 94.333 13 133 13
c150.667 0 273 -35.333 367 -106s141 -163 141 -277c0 -141.333 -66.333 -269.333 -199 -384s-281 -172 -445 -172c-106.667 0 -215.667 26.667 -327 80z" />
    <glyph glyph-name="six" unicode="6" horiz-adv-x="1271" 
d="M1287 1135l-62.001 0.000976562c4 22.667 6 39.667 6 51c0 42.667 -20 77.667 -60 105s-91.667 41 -155 41c-126.667 0 -244 -67.833 -352 -203.5s-172 -295.5 -192 -479.5c132.667 176 279 264 439 264c93.333 0 171 -31.333 233 -94s93 -141.334 93 -236.001
c0 -158.667 -57.5 -299.667 -172.5 -423s-247.167 -185 -396.5 -185c-129.333 0 -232.166 44.833 -308.499 134.5s-114.5 210.5 -114.5 362.5c0 245.333 84 462.333 252 651s361 283 579 283c82 0 171.333 -19.667 268 -59zM724.999 37.001
c89.333 0 166.167 45.833 230.5 137.5s96.5 201.5 96.5 329.5c0 206.667 -77.667 310 -233 310c-100 0 -186 -41.833 -258 -125.5s-108 -183.5 -108 -299.5c0 -102.667 25.5 -187 76.5 -253s116.167 -99 195.5 -99z" />
    <glyph glyph-name="seven" unicode="7" horiz-adv-x="1137" 
d="M134 -321c26.667 146.667 108.333 299.333 245 458l617 655l108 121h-823l70 173h941l-45 -112c-548 -584 -840.667 -1007.33 -878 -1270z" />
    <glyph glyph-name="eight" unicode="8" horiz-adv-x="1221" 
d="M582 734l-18.999 12.999c-93.333 65.333 -140 151 -140 257c0 105.333 52.333 198.666 157 279.999s224.667 122 360 122c96 0 174.167 -22.833 234.5 -68.5s90.5 -104.5 90.5 -176.5c0 -137.333 -120 -272.666 -360 -405.999c166.667 -104.667 250 -218 250 -340
c0 -112 -58.667 -213.333 -176 -304s-249 -136 -395 -136c-110.667 0 -203.334 30.167 -278.001 90.5s-112 135.5 -112 225.5c0 156.667 129.333 304.334 388 443.001zM844.001 790.999c169.333 104.667 254.001 214.668 254.001 330.001c0 60 -22.333 110.167 -67 150.5
s-100.334 60.5 -167.001 60.5c-74 0 -137 -25.333 -189 -76s-78 -112.334 -78 -185.001c0 -78.667 60.333 -157.667 181 -237zM632.002 692c-160.667 -86 -241.001 -210.667 -241.001 -374c0 -82 25.833 -147.333 77.5 -196s120.834 -73 207.501 -73
c78 0 145.833 28.5 203.5 85.5s86.5 123.833 86.5 200.5c0 94 -83.333 195 -250 303z" />
    <glyph glyph-name="nine" unicode="9" horiz-adv-x="1271" 
d="M191 -62l62.0029 0.000976562l-1 -41c0 -104 71.333 -156 214 -156c126 0 243.167 68 351.5 204s172.5 296.333 192.5 481c-133.333 -177.333 -281 -266 -443 -266c-94.667 0 -173.334 31.833 -236.001 95.5s-94 143.5 -94 239.5c0 161.333 57.667 304.166 173 428.499
s247.666 186.5 396.999 186.5c129.333 0 232.166 -44.667 308.499 -134s114.5 -210.333 114.5 -363c0 -246 -83.833 -463.167 -251.5 -651.5s-361.167 -282.5 -580.5 -282.5c-67.333 0 -155.333 16 -264 48zM752.003 1036c-90.667 0 -168.167 -44.668 -232.5 -134.001
s-96.5 -196.666 -96.5 -321.999c0 -206 79 -309 237 -309c102.667 0 190.5 40.833 263.5 122.5s109.5 179.5 109.5 293.5c0 101.333 -26.333 184.833 -79 250.5s-120 98.5 -202 98.5z" />
    <glyph glyph-name="colon" unicode=":" horiz-adv-x="562" 
d="M135 179l196 142l152 -195l-201 -151zM292 968l197 142l151 -195l-201 -150z" />
    <glyph glyph-name="semicolon" unicode=";" horiz-adv-x="558" 
d="M131 177l198.998 144l147 -196c-7.33301 -134.667 -49.166 -238.5 -125.499 -311.5s-181.166 -109.5 -314.499 -109.5l56 62c104 10 166.333 79.667 187 209zM288.998 968l196 142l152 -195l-201 -150z" />
    <glyph glyph-name="less" unicode="&#x3c;" 
d="M1417 1135l-31 -134l-916 -421l754 -414l-23 -117l-978 543z" />
    <glyph glyph-name="equal" unicode="=" 
d="M177 364l22 111h1086l-22 -111h-1086zM246 709l22 111h1086l-23 -111h-1085z" />
    <glyph glyph-name="greater" unicode="&#x3e;" 
d="M223 49l30 135l917 421l-754 414l23 116l978 -543z" />
    <glyph glyph-name="question" unicode="?" horiz-adv-x="1024" 
d="M299 121l158 126l121 -165l-157 -107zM392 388c12.667 112 90.667 229.332 234 351.999l42 36c158.667 136 238 281.667 238 437c0 72.667 -20 131.334 -60 176.001s-92.333 67 -157 67c-151.333 0 -247.666 -82.333 -288.999 -247h-62l48 237
c136.667 48 258.667 72 366 72c111.333 0 200.666 -24.833 267.999 -74.5s101 -115.5 101 -197.5c0 -110 -69.333 -223.667 -208 -341l-105 -89c-113.333 -96 -183.333 -210.333 -210 -343l-6 -27z" />
    <glyph glyph-name="at" unicode="@" horiz-adv-x="1764" 
d="M1249 44c-117.333 -54 -231.999 -81.001 -343.999 -81.001c-194 0 -353.667 57.833 -479 173.5s-188 262.834 -188 441.501c0 222 82 427.333 246 616c186.667 215.333 419.667 323 699 323c188.667 0 346.167 -59.833 472.5 -179.5s189.5 -268.834 189.5 -447.501
c0 -159.333 -49.833 -298.333 -149.5 -417s-216.5 -178 -350.5 -178c-116 0 -174 46 -174 138c0 13.333 11 66.666 33 159.999l9 42h-21c-132.667 -226 -261.334 -339 -386.001 -339c-122.667 0 -184 77.333 -184 232c0 158.667 55.167 305.667 165.5 441
s230.166 203 359.499 203c31.333 0 86.333 -10.667 165 -32c4 -1.33301 13 -3.66602 27 -6.99902h93l-114 -573c-7.33301 -38 -11 -70.333 -11 -97c0 -62 33.667 -93 101 -93c92.667 0 178.334 55.5 257.001 166.5s118 232.5 118 364.5
c0 156.667 -58.667 288.334 -176 395.001s-262 160 -434 160c-223.333 0 -424.666 -89 -603.999 -267s-269 -377.667 -269 -599c0 -164.667 56.667 -300 170 -406s257.666 -159 432.999 -159c104.667 0 212.667 25 324 75zM1222 818.999l42 211
c-54 28.667 -114.333 43 -181 43c-90 0 -165.167 -47.333 -225.5 -142s-90.5 -212.667 -90.5 -354c0 -105.333 31.333 -158 94 -158c96.667 0 217 133.333 361 400z" />
    <glyph glyph-name="A" unicode="A" horiz-adv-x="1996" 
d="M91 84l135.002 136c63.333 -97.333 146.333 -146 249 -146c98 0 190.167 40.833 276.5 122.5s189.5 226.5 309.5 434.5l431 744c-72.667 8.66699 -135 13 -187 13c-139.333 0 -246.833 -34.833 -322.5 -104.5s-113.5 -169.167 -113.5 -298.5l-196 -97
c12.667 125.333 47.667 229 105 311c63.333 91.333 138 156.333 224 195s210.667 63.667 374 75c32.667 2 82 5.66699 148 11l204 37l13 -333l58 -691c13.333 -160.667 32.166 -266.5 56.499 -317.5s68.166 -76.5 131.499 -76.5c11.333 0 50.333 2 117 6l-13 -66l-459 -76
l-41 493h-545c-105.333 -182.667 -205 -310.5 -299 -383.5s-206 -109.5 -336 -109.5c-123.333 0 -230 40.333 -320 121zM1089 530h495l-64 751z" />
    <glyph glyph-name="B" unicode="B" horiz-adv-x="1609" 
d="M210 0l147.001 148h21c100 0 169 22.833 207 68.5s73 147.834 105 306.501l175 879c-137.333 0 -248.333 -36.833 -333 -110.5s-127 -169.834 -127 -288.501v-22l-194 -94c16.667 204 96 353.833 238 449.5s355.667 143.5 641 143.5
c201.333 0 345.166 -21.667 431.499 -65s129.5 -115.333 129.5 -216c0 -203.333 -153.333 -345.333 -460 -426c257.333 -82.667 386 -196 386 -340c0 -128.667 -70.333 -237.167 -211 -325.5s-313.667 -132.5 -519 -132.5l-237 8zM954.001 796h52
c123.333 0 225.333 36.5 306 109.5s121 165.5 121 277.5c0 157.333 -110 236 -330 236h-25zM582.001 130l104 -22.999c102 -22 209.333 -33 322 -33c229.333 0 344 107 344 321c0 104.667 -34.167 187.167 -102.5 247.5s-161.5 90.5 -279.5 90.5h-29l-22 -112
c-44 -218.667 -156.333 -382.334 -337 -491.001z" />
    <glyph glyph-name="C" unicode="C" horiz-adv-x="1400" 
d="M1332 91c-212 -85.333 -398 -128.001 -558 -128.001c-172 0 -305.333 48.333 -400 145s-142 232.667 -142 408c0 278 90.833 514.5 272.5 709.5s401.5 292.5 659.5 292.5c154 0 297 -19.667 429 -59l-85 -275h-63c6.66699 31.333 10 57 10 77c0 58 -31.667 105 -95 141
s-145.666 54 -246.999 54c-152.667 0 -286.334 -68 -401.001 -204c-76 -90 -138 -201.667 -186 -335s-72 -259.666 -72 -378.999c0 -144 37.833 -257.333 113.5 -340s179.5 -124 311.5 -124c148 0 305.333 37.333 472 112z" />
    <glyph glyph-name="D" unicode="D" horiz-adv-x="1991" 
d="M211 0l146.998 148l15 2c4 0.666992 12.667 0.333984 26 -0.999023c6.66699 -0.666992 14 -1 22 -1c72.667 0 127.5 22.167 164.5 66.5s66.833 123.833 89.5 238.5l189 949c-137.333 0 -248.333 -36.833 -333 -110.5s-127 -169.834 -127 -288.501v-22l-194 -94
c34.667 395.333 319.334 593 854.001 593h289c222.667 0 383.334 -41.5 482.001 -124.5s148 -218.5 148 -406.5c0 -304.667 -105.167 -543.167 -315.5 -715.5s-500.833 -258.5 -871.5 -258.5c-15.333 0 -46.333 1 -93 3zM571.998 126l178 -30.001
c96.667 -16.667 195 -25 295 -25c137.333 0 244.333 18.833 321 56.5s147.667 106.5 213 206.5c115.333 176 173 371.667 173 587c0 332 -183.333 498 -550 498h-125l-153 -767c-27.333 -139.333 -65 -244.666 -113 -315.999s-127.667 -141.333 -239 -210z" />
    <glyph glyph-name="E" unicode="E" horiz-adv-x="1506" 
d="M210 0l147.999 148.001h17c101.333 0 171.166 21 209.499 63s71.5 134.333 99.5 277l182 914c-137.333 0 -248.333 -36.833 -333 -110.5s-127 -169.834 -127 -288.501v-22l-194 -94c16.667 202 96 351.333 238 448s352.333 145 631 145h588l-89 -283h-63
c5.33301 26 8 49.333 8 70c0 52.667 -30.167 89 -90.5 109s-170.166 30 -329.499 30h-31l-116 -592h446l-102 -103c-151.333 19.333 -254.333 29 -309 29h-50l-21 -108c-23.333 -121.333 -58.833 -217.5 -106.5 -288.5s-124.167 -141.5 -229.5 -211.5l480 -19l105 -3
c108.667 0 210.334 37.667 305.001 113l-16 -81c-118 -119.333 -229 -179 -333 -179l-46 1z" />
    <glyph glyph-name="F" unicode="F" horiz-adv-x="1569" 
d="M727 685l71 80.001h106l126 637c-136.667 0 -247.5 -36.833 -332.5 -110.5s-127.5 -169.834 -127.5 -288.501l1 -22l-195 -94c17.333 204.667 96.833 354.667 238.5 450s355.5 143 641.5 143h577l-90 -283h-64c8.66699 26.667 13 53 13 79
c0 86.667 -136.333 130 -409 130h-43l-127 -641h436l-99 -102c-106.667 14.667 -208 22 -304 22h-49l-58 -293c-48.667 -246.667 -142.834 -443.667 -282.501 -591s-302.167 -221 -487.5 -221c-100 0 -189.333 37.667 -268 113l147 150
c52.667 -109.333 137.334 -164 254.001 -164c106.667 0 190.5 48.167 251.5 144.5s115.833 266.833 164.5 511.5l70 350h-161z" />
    <glyph glyph-name="G" unicode="G" horiz-adv-x="1554" 
d="M354 -321l170.002 95.0029c80 -73.333 182.667 -110 308 -110c88 0 155.5 25.833 202.5 77.5s85.167 141.5 114.5 269.5l9 38c-118.667 -33.333 -242.667 -50 -372 -50c-171.333 0 -306.5 49.333 -405.5 148s-148.5 233 -148.5 403c0 266 92.667 493.833 278 683.5
s408.666 284.5 669.999 284.5c148.667 0 293.667 -19 435 -57l-80 -264h-61c2.66699 23.333 4 43.666 4 60.999c0 59.333 -32 107.166 -96 143.499s-148.333 54.5 -253 54.5c-178.667 0 -335.834 -90 -471.501 -270s-203.5 -388.333 -203.5 -625
c0 -144.667 43.333 -258.834 130 -342.501s204.667 -125.5 354 -125.5c92 0 170.333 10.333 235 31l99 499h-177c-117.333 0 -224 -37.667 -320 -113l13 69c120 116 240 174 360 174h358l-78 -309l-47 -236c-43.333 -216 -119.833 -374.5 -229.5 -475.5
s-260.167 -151.5 -451.5 -151.5c-144 0 -259.333 32.667 -346 98z" />
    <glyph glyph-name="H" unicode="H" horiz-adv-x="2108" 
d="M724 734l67.998 79.998h122l114 574c-34 5.33301 -57.667 8 -71 8c-106.667 0 -197.5 -38.667 -272.5 -116s-112.5 -170.666 -112.5 -279.999v-14l-194 -95c30.667 392.667 305.334 589 824.001 589h54l-132 -666h617l59 299
c38.667 196.667 115.167 352.334 229.5 467.001s249.5 172 405.5 172c61.333 0 116 -8.33301 164 -25l-86 -149c-68.667 58.667 -131 88 -187 88c-70.667 0 -127.167 -29.667 -169.5 -89s-78.5 -160.333 -108.5 -303l-160 -748c-34 -160.667 -51 -267 -51 -319
c0 -68.667 37.333 -103 112 -103c32.667 0 79.334 3.66699 140.001 11l-13 -63l-505 -89l154 771h-617l-24 -119c-38 -188.667 -121.333 -342.5 -250 -461.5s-276.334 -178.5 -443.001 -178.5c-123.333 0 -227 38 -311 114l140 144c64 -110 157.333 -165 280 -165
c176.667 0 293.334 142 350.001 426l48 240h-174z" />
    <glyph glyph-name="I" unicode="I" horiz-adv-x="925" 
d="M12 0l150 148.001h67c76 0 132.167 24.833 168.5 74.5s68.833 147.5 97.5 293.5l163 816h-271l145 148h651l-152 -148h-163l-141 -708c-43.333 -216.667 -155.333 -380.334 -336 -491.001l389 -10l-144 -148z" />
    <glyph glyph-name="J" unicode="J" horiz-adv-x="1088" 
d="M-117 -187l136.999 139c60 -128.667 153 -193 279 -193c83.333 0 148.5 31.667 195.5 95s85.833 171.333 116.5 324l229 1154h-267l141 148h644l-154 -148h-154l-195 -980c-43.333 -216 -119.666 -382.167 -228.999 -498.5s-244 -174.5 -404 -174.5
c-124 0 -237 44.667 -339 134z" />
    <glyph glyph-name="K" unicode="K" horiz-adv-x="2028" 
d="M80 92l141.999 144.997c66.667 -108.667 159.667 -163 279 -163c176.667 0 293 142 349 426l177 888c-34 5.33301 -58 8 -72 8c-106 0 -196.5 -38.667 -271.5 -116s-112.5 -170.666 -112.5 -279.999v-14l-194 -95c14.667 190.667 89.834 336.5 225.501 437.5
s323.5 151.5 563.5 151.5h89l-142 -716l523 496c181.333 171.333 329 257 443 257c45.333 0 89.333 -12.333 132 -37l-138 -147c-28.667 24 -56.334 36 -83.001 36c-77.333 0 -185.833 -55.667 -325.5 -167s-260.5 -238.666 -362.5 -381.999l193 -334
c148 -258 275.667 -387 383 -387c36 0 98 28 186 84l-15 -76c-114.667 -96 -211.667 -144 -291 -144c-89.333 0 -179.666 55.333 -270.999 166s-217 317.334 -377 620.001l-26 -128c-37.333 -188 -120.833 -341.667 -250.5 -461s-277.5 -179 -443.5 -179
c-122 0 -225.333 37 -310 111z" />
    <glyph glyph-name="L" unicode="L" horiz-adv-x="1371" 
d="M18 0l141.999 148.002h58c79.333 0 137.333 23 174 69s68.334 135 95.001 267l102 512c30 151.333 99 276.166 207 374.499s230.667 147.5 368 147.5c61.333 0 132.333 -22 213 -66l-50 -249h-64c2 17.333 3 31.666 3 42.999c0 124 -64 186 -192 186
c-126 0 -210.333 -107.667 -253 -323l-92 -460c-27.333 -138 -65.5 -244 -114.5 -318s-125.167 -139.667 -228.5 -197l559 -9c160.667 0 302 37.333 424 112l-15 -75c-93.333 -82.667 -163.5 -135.5 -210.5 -158.5s-109.167 -34.5 -186.5 -34.5z" />
    <glyph glyph-name="M" unicode="M" horiz-adv-x="2373" 
d="M80 92l142.999 146.999c67.333 -110.667 161 -166 281 -166c78.667 0 148.334 33.333 209.001 100s102 155 124 265l189 950c-34 5.33301 -57.667 8 -71 8c-110 0 -201.667 -39.167 -275 -117.5s-110 -175.833 -110 -292.5l-194 -95c14 186 88.333 330.667 223 434
s315.667 155 543 155h81c123.333 -343.333 213.333 -696.333 270 -1059l656 1059l214 25l-76 -321l-163 -817c-14 -72.667 -21 -130.667 -21 -174c0 -58.667 35.667 -88 107 -88c35.333 0 82.666 3.66699 141.999 11l-13 -64l-494 -98l259 1302l-684 -1096l-103 -16v29
c0 260.667 -63.667 584.334 -191 971.001l-82 -408c-100 -503.333 -318 -755 -654 -755c-117.333 0 -220.666 37 -309.999 111z" />
    <glyph glyph-name="N" unicode="N" horiz-adv-x="2109" 
d="M80 94l143.003 146c68 -110.667 161.333 -166 280 -166c79.333 0 149.333 33.167 210 99.5s102 154.833 124 265.5l189 949c-34 5.33301 -58 8 -72 8c-109.333 0 -200.666 -39.167 -273.999 -117.5s-110 -175.833 -110 -292.5l-194 -95
c13.333 176.667 85.666 319 216.999 427s297.666 162 498.999 162h96c68.667 -176 159 -363.667 271 -563l127 -226c88.667 -155.333 153.667 -281 195 -377l115 578c39.333 199.333 108 353.5 206 462.5s216.333 163.5 355 163.5c49.333 0 97.666 -9.33301 144.999 -28
l-72 -135c-59.333 46.667 -116.333 70 -171 70c-144 0 -240.667 -125.333 -290 -376l-150 -753l-47 -296l-128 -44c-24 75.333 -94 216 -210 422l-245 434c-65.333 116 -119.333 219.667 -162 311l-76 -385c-48.667 -243.333 -129.834 -430.333 -243.501 -561
s-252.167 -196 -415.5 -196c-114.667 0 -218.667 37.667 -312 113z" />
    <glyph glyph-name="O" unicode="O" horiz-adv-x="1604" 
d="M765 -37c-164 0 -293.833 50.999 -389.5 152.999s-143.5 240.333 -143.5 415c0 262 90.167 492 270.5 690s389.833 297 628.5 297c162.667 0 291.5 -50.167 386.5 -150.5s142.5 -236.5 142.5 -408.5c0 -273.333 -87.833 -507.666 -263.5 -702.999
s-386.167 -293 -631.5 -293zM804 30.999c173.333 0 322 91.666 446 274.999s186 403.333 186 660c0 325.333 -113 488 -339 488c-173.333 0 -322.333 -90.667 -447 -272s-187 -398.666 -187 -651.999c0 -332.667 113.667 -499 341 -499z" />
    <glyph glyph-name="P" unicode="P" horiz-adv-x="1567" 
d="M210 0l149 148.003h19l43 -1c78.667 0 136 26.167 172 78.5s70 158.166 102 317.499l170 859c-136.667 0 -247.5 -36.833 -332.5 -110.5s-127.5 -169.834 -127.5 -288.501l1 -22l-195 -94c18.667 207.333 99 358.166 241 452.499s360.333 141.5 655 141.5
c212 0 363.167 -22.833 453.5 -68.5s135.5 -121.834 135.5 -228.501c0 -85.333 -31 -172.333 -93 -261s-140 -157 -234 -205c-108.667 -54.667 -232.667 -82 -372 -82h-27l38 62h18c128 0 235.333 42 322 126s130 188.333 130 313c0 188 -133.333 282 -400 282l-161 -810
c-40 -203.333 -150.333 -362.666 -331 -477.999l385 -8l-138 -148z" />
    <glyph glyph-name="Q" unicode="Q" horiz-adv-x="1520" 
d="M127 78l118.001 115l160 -64c243.333 18 437 86.333 581 205c96 78.667 174.5 184.167 235.5 316.5s91.5 263.166 91.5 392.499c0 118 -29.833 216.333 -89.5 295s-134.5 118 -224.5 118c-139.333 0 -260.833 -70.167 -364.5 -210.5s-155.5 -304.166 -155.5 -491.499
c0 -182 61.333 -273 184 -273c73.333 0 149.666 27 228.999 81l-17 -85c-106 -79.333 -210 -119 -312 -119c-86.667 0 -156 32.667 -208 98s-78 152.333 -78 261c0 204 79.5 388.333 238.5 553s336.833 247 533.5 247c137.333 0 253.333 -47.333 348 -142
s142 -210.667 142 -348c0 -222 -85 -416.333 -255 -583s-411.333 -292 -724 -376l621 -253c110.667 -45.333 203.667 -68 279 -68c85.333 0 179 31.333 281 94l-15 -78c-123.333 -105.333 -233 -158 -329 -158c-53.333 0 -130.333 20 -231 60z" />
    <glyph glyph-name="R" unicode="R" horiz-adv-x="1796" 
d="M210 0l148.002 148h13c3.33301 0 10.333 -1 21 -3c11.333 -2 24 -3 38 -3c68 0 120.833 24.833 158.5 74.5s68.5 134.5 92.5 254.5l185 931c-137.333 0 -248.333 -36.833 -333 -110.5s-127 -169.834 -127 -288.501v-22l-194 -94c18 205.333 97.833 355.5 239.5 450.5
s356.5 142.5 644.5 142.5c224.667 0 382 -21.5 472 -64.5s135 -118.167 135 -225.5c0 -177.333 -129.667 -328.666 -389 -453.999l240 -403c85.333 -143.333 148.666 -215 189.999 -215c45.333 0 126.666 59 243.999 177l-19 -95c-146 -150 -253.667 -225 -323 -225
c-90 0 -189.333 100.333 -298 301l-225 415h-189l-18 -90c-39.333 -198 -150 -354.667 -332 -470l391 -8l-138 -148zM946.002 753h265c182 89.333 273 226.333 273 411c0 170 -122 255 -366 255h-39z" />
    <glyph glyph-name="S" unicode="S" horiz-adv-x="1189" 
d="M116 56l138.999 142c122.667 -99.333 249.667 -149 381 -149c91.333 0 166 25.833 224 77.5s87 118.167 87 199.5c0 80 -54.667 168.333 -164 265l-141 125c-104.667 92 -169.5 156.667 -194.5 194s-37.5 87.333 -37.5 150c0 124.667 52.667 232.167 158 322.5
s231 135.5 377 135.5c92.667 0 201.334 -27.667 326.001 -83l-50 -251h-63c1.33301 20.667 2 35 2 43c0 63.333 -25.333 114.333 -76 153s-117.667 58 -201 58c-86 0 -158.333 -25.5 -217 -76.5s-88 -114.167 -88 -189.5c0 -50.667 14.833 -97 44.5 -139
s91.5 -103 185.5 -183l118 -102c131.333 -112.667 197 -218 197 -316c0 -128.667 -61.667 -239 -185 -331s-270.333 -138 -441 -138c-130.667 0 -257.667 31 -381 93z" />
    <glyph glyph-name="T" unicode="T" horiz-adv-x="1464" 
d="M387 0l147.997 148l15 -4c8 -1.33301 27.333 -2 58 -2c74 0 128.833 26.333 164.5 79s68.834 155.667 99.501 309l159 802h-253c-256.667 0 -385 -101.333 -385 -304c0 -24 3 -53.667 9 -89l-208 -97c28 196 113 351.333 255 466s320.667 172 536 172h424
c191.333 0 318 12.667 380 38s104 81.666 126 168.999l150 61c-46.667 -124 -136.667 -224.333 -270 -301s-284.666 -115 -453.999 -115h-100l-139 -697c-24.667 -125.333 -61.167 -224.166 -109.5 -296.499s-124.166 -141.5 -227.499 -207.5l386 -8l-139 -148z" />
    <glyph glyph-name="U" unicode="U" horiz-adv-x="2000" 
d="M1455 -37l61.998 308.001c-147.333 -205.333 -305.666 -308 -474.999 -308c-118 0 -212 41.167 -282 123.5s-105 192.5 -105 330.5c0 86 20.167 226.333 60.5 421s87.166 378 140.499 550c-34 5.33301 -57.667 8 -71 8c-110 0 -201.667 -39.167 -275 -117.5
s-110 -175.833 -110 -292.5l-194 -95c29.333 392.667 300 589 812 589h72c-60.667 -190.667 -112.667 -390 -156 -598s-65 -361.667 -65 -461c0 -108 21.333 -192.5 64 -253.5s102.334 -91.5 179.001 -91.5c80.667 0 160.334 34.667 239.001 104s147 165.666 205 288.999
l201 1011l227 25l-76 -321l-143 -716c-26 -131.333 -39 -216.333 -39 -255c0 -72 44.333 -108 133 -108c31.333 0 71.333 3.33301 120 10l-13 -64z" />
    <glyph glyph-name="V" unicode="V" horiz-adv-x="1826" 
d="M1021 -25l6 260.999c0 516.667 -47 875.334 -141 1076c-99.333 211.333 -221 317 -365 317c-130 0 -245 -83 -345 -249l-51 27c148 230 309.667 345 485 345c418.667 0 628 -480.333 628 -1441l320 501c194 303.333 291 493 291 569c0 25.333 -30 38 -90 38h-80l12 61
h430l-13 -61h-83l-899 -1419z" />
    <glyph glyph-name="W" unicode="W" horiz-adv-x="2373" 
d="M926 -25l17.001 594.999c0 348 -37.833 611.5 -113.5 790.5s-186.834 268.5 -333.501 268.5c-120 0 -234 -73 -342 -219l-45 27c167.333 210 325.666 315 474.999 315c191.333 0 335.333 -108.667 432 -326c83.333 -186 125 -488.333 125 -907l3 -124l512 1041l96 27
c10.667 -102.667 24.334 -206 41.001 -310l20 -126c25.333 -165.333 51 -397.666 77 -696.999l215 421c165.333 326 248 531.667 248 617c0 34 -37.667 51 -113 51h-36l13 61h419l-12 -61h-92l-734 -1419l-102 -25l3 123c0 379.333 -34 726.333 -102 1041l-568 -1139z" />
    <glyph glyph-name="X" unicode="X" horiz-adv-x="1571" 
d="M833 704l-137.999 416c-56 167.333 -109 251 -159 251c-47.333 0 -123 -65.667 -227 -197l24 128c99.333 143.333 196 215 290 215c117.333 0 215 -116.333 293 -349l88 -260l242 296c170.667 208.667 318.334 313 443.001 313c46 0 86.667 -13.333 122 -40l-169 -169
c-24.667 13.333 -46.334 20 -65.001 20c-70.667 0 -206.334 -114.667 -407.001 -344l-140 -159l158 -466c58 -172 115.667 -258 173 -258c54 0 124 56 210 168l-22 -112c-93.333 -129.333 -188.666 -194 -285.999 -194c-116 0 -208 97.667 -276 293l-126 365l-311 -384
c-148.667 -182.667 -270.334 -274 -365.001 -274c-61.333 0 -119.333 29.333 -174 88l159 158c22 -35.333 49.333 -53 82 -53c70 0 211 122 423 366z" />
    <glyph glyph-name="Y" unicode="Y" horiz-adv-x="1676" 
d="M402 -329l136.999 131c79.333 -94 174 -141 284 -141c168.667 0 293.667 163.333 375 490l84 337c-178.667 -288 -325 -432 -439 -432c-90.667 0 -143.667 97.667 -159 293l-59 745c-16 200 -59.667 300 -131 300c-51.333 0 -121 -39.667 -209 -119l16 82
c108 106.667 200.333 160 277 160c81.333 0 142.5 -40.167 183.5 -120.5s68.833 -214.833 83.5 -403.5l41 -549c10 -131.333 36.333 -197 79 -197c33.333 0 84.833 38.333 154.5 115s136.834 168.667 201.501 276l212 842l232 19l-92 -315l-195 -785
c-136 -545.333 -386.333 -818 -751 -818c-114 0 -222.333 30 -325 90z" />
    <glyph glyph-name="Z" unicode="Z" horiz-adv-x="1370" 
d="M84 -25l25.998 131l1112 1173c-73.333 -14.667 -139.666 -22 -198.999 -22c-60 0 -131.667 10 -215 30l-110 26c-22.667 6 -42.334 11 -59.001 15c-54.667 13.333 -94 20 -118 20c-52.667 0 -113.667 -20.333 -183 -61l17 82c102 90.667 205 136 309 136
c26 0 68 -6.33301 126 -19l116 -26c88 -19.333 176.333 -29 265 -29c102 0 192 16.333 270 49l-27 -136l-1091 -1164c82.667 20 156.334 30 221.001 30c40.667 0 97.667 -6.33301 171 -19l179 -31c12.667 -2 43.667 -8 93 -18c46 -8.66699 81.667 -13 107 -13
c101.333 0 192.333 53 273 159l-20 -101c-112.667 -149.333 -224 -224 -334 -224c-51.333 0 -127.666 11 -228.999 33l-133 29c-73.333 16 -138.666 24 -195.999 24c-78.667 0 -202.334 -24.667 -371.001 -74z" />
    <glyph glyph-name="bracketleft" unicode="[" horiz-adv-x="722" 
d="M155 -296l402 2023h494l-12 -61h-321l-378 -1900h321l-13 -62h-493z" />
    <glyph glyph-name="backslash" unicode="\" horiz-adv-x="1039" 
d="M853 -296l-487 2023h101l489 -2023h-103z" />
    <glyph glyph-name="bracketright" unicode="]" horiz-adv-x="722" 
d="M852 1727l-402 -2023h-494l12 62h321l378 1900h-321l12 61h494z" />
    <glyph glyph-name="asciicircum" unicode="^" 
d="M184 395l759 1085l327 -1085h-118l-248 835l-587 -835h-133z" />
    <glyph glyph-name="underscore" unicode="_" horiz-adv-x="1024" 
d="M73 -130l26 130h826l-25 -130h-827z" />
    <glyph glyph-name="grave" unicode="`" horiz-adv-x="1197" 
d="M1129 1362l-126.001 -79.001c-48 96.667 -117.333 185.334 -208 266.001l119 92c82.667 -82.667 154.334 -175.667 215.001 -279z" />
    <glyph glyph-name="a" unicode="a" horiz-adv-x="1369" 
d="M984 543h-18c-75.333 -167.333 -166 -303.833 -272 -409.5s-205.333 -158.5 -298 -158.5c-140.667 0 -211 88 -211 264c0 194 77.333 384 232 570c160 192.667 355.333 289 586 289c95.333 0 195 -4 299 -12l-72 -296l-97 -494c-15.333 -77.333 -23 -127.333 -23 -150
c0 -42 19.667 -63 59 -63c66.667 0 166 73.333 298 220l-18 -93c-146 -156.667 -277 -235 -393 -235c-96.667 0 -145 50.333 -145 151c0 33.333 8 90 24 170zM1064 943c-84 37.333 -167 56 -249 56c-121.333 0 -218.333 -76.667 -291 -230
c-85.333 -181.333 -128 -344.333 -128 -489c0 -104.667 30.667 -157 92 -157c57.333 0 139.833 60.167 247.5 180.5s202.167 257.833 283.5 412.5z" />
    <glyph glyph-name="b" unicode="b" horiz-adv-x="1259" 
d="M186 0l70.999 296.001l138 691c48 241.333 138.5 429.166 271.5 563.499s294.833 201.5 485.5 201.5c66 0 126 -7 180 -21l-138 -143c-77.333 35.333 -144 53 -200 53c-106 0 -185.5 -38.5 -238.5 -115.5s-100.833 -223.5 -143.5 -439.5l-108 -543h17
c76.667 168 167.834 304.5 273.501 409.5s204.834 157.5 297.501 157.5c141.333 0 212 -88 212 -264c0 -194.667 -77 -385 -231 -571c-158.667 -191.333 -352.334 -287 -581.001 -287c-34 0 -77 1 -129 3zM423.999 141.001c82.667 -36.667 166 -55.001 250 -55.001
c120.667 0 217.334 76.667 290.001 230c86 181.333 129 344.333 129 489c0 104.667 -31 157 -93 157c-56.667 0 -138.834 -60.167 -246.501 -180.5s-202.5 -258.166 -284.5 -413.499z" />
    <glyph glyph-name="c" unicode="c" horiz-adv-x="1119" 
d="M1075 275l-14.999 -78c-218.667 -148 -398 -222 -538 -222c-96.667 0 -174.334 32.667 -233.001 98s-88 151.666 -88 258.999c0 194 73.333 372.167 220 534.5s308 243.5 484 243.5c77.333 0 154.333 -17 231 -51l-67 -257h-62l3 15c6.66699 31.333 10 54.333 10 69
c0 92 -62.333 138 -187 138c-117.333 0 -215 -62.667 -293 -188s-117 -282.666 -117 -471.999c0 -180.667 67.333 -271 202 -271c128 0 278 60.667 450 182z" />
    <glyph glyph-name="d" unicode="d" horiz-adv-x="1368" 
d="M984 543l-18 -0.000976562c-76.667 -168 -167.667 -304.667 -273 -410s-204 -158 -296 -158c-141.333 0 -212 88.333 -212 265c0 120 34.5 245.667 103.5 377s158.167 241.666 267.5 330.999c73.333 59.333 146.666 99.166 219.999 119.499s179.666 30.5 318.999 30.5
c39.333 132 80.333 232.833 123 302.5s102.667 134.834 180 195.501c132 104 277.667 156 437 156c66 0 126 -7 180 -21l-137 -142c-79.333 34.667 -146.666 52 -201.999 52c-106.667 0 -187 -38.833 -241 -116.5s-102.333 -223.167 -145 -436.5l-157 -792
c-16 -77.333 -24 -126.666 -24 -147.999c0 -43.333 19.667 -65 59 -65c66.667 0 166.334 73.333 299.001 220l-19 -93c-145.333 -156.667 -276 -235 -392 -235c-96.667 0 -145 50.333 -145 151c0 32.667 8 89.334 24 170.001zM1064 942.999
c-82.667 37.333 -165.999 55.999 -249.999 55.999c-120.667 0 -217.334 -76.667 -290.001 -230c-86 -181.333 -129 -344.333 -129 -489c0 -104.667 31 -157 93 -157c57.333 0 139.833 60.333 247.5 181s202.167 258.334 283.5 413.001z" />
    <glyph glyph-name="e" unicode="e" horiz-adv-x="1109" 
d="M1077 273l-14.999 -76.999c-212 -147.333 -392.667 -221 -542 -221c-94.667 0 -171.5 33.167 -230.5 99.5s-88.5 152.166 -88.5 257.499c0 188 72 364.833 216 530.5s297.667 248.5 461 248.5c59.333 0 107.333 -20 144 -60s55 -92 55 -156
c0 -128 -65.333 -238 -196 -330s-286.667 -138 -468 -138l-1 -45c0 -194.667 71.333 -292 214 -292c123.333 0 273.666 61 450.999 183zM415.001 489.001c149.333 12 266 50.5 350 115.5s126 149.167 126 252.5c0 102 -37 153 -111 153c-80 0 -157.333 -53.167 -232 -159.5
s-119 -226.833 -133 -361.5z" />
    <glyph glyph-name="f" unicode="f" horiz-adv-x="837" 
d="M-426 -653l143.001 149c64 -26 129.333 -39 196 -39c95.333 0 168.833 32.333 220.5 97s90.167 171.667 115.5 321l192 1137h-224l70 74h169l3 13c38 193.333 125.667 350.5 263 471.5s296.666 181.5 477.999 181.5c58 0 111.667 -5.66699 161 -17l-143 -152
c-62 38.667 -125.667 58 -191 58c-100 0 -174.333 -29.5 -223 -88.5s-88.667 -167.167 -120 -324.5l-29 -142h374l-81 -89c-84.667 10 -169.667 15 -255 15h-52l-146 -860c-44 -261.333 -131.667 -463 -263 -605s-296 -213 -494 -213c-52 0 -106.667 4.33301 -164 13z" />
    <glyph glyph-name="g" unicode="g" horiz-adv-x="1258" 
d="M311 16c-80 40 -120.001 120.334 -120.001 241.001c0 197.333 80 388 240 572c155.333 179.333 348.333 269 579 269c44 0 137 -4 279 -12l-71 -296l-47 -232c-24 -122 -40.333 -212 -49 -270c-36.667 -236.667 -73.5 -400.834 -110.5 -492.501
s-102.5 -181.5 -196.5 -269.5c-138 -128 -297 -192 -477 -192c-117.333 0 -212.666 22.833 -285.999 68.5s-110 105.167 -110 178.5c0 146.667 123 291.667 369 435zM1050 940.001c-80 39.333 -159.665 59 -238.998 59c-88.667 0 -163.667 -39.667 -225 -119
c-48.667 -62.667 -92.834 -155.167 -132.501 -277.5s-59.5 -226.833 -59.5 -313.5c0 -94 29.667 -141 89 -141c131.333 0 305.666 189.667 522.999 569zM971.001 543.001h-15.998c-70.667 -156.667 -155.334 -282.667 -254.001 -378s-202.334 -151.333 -311.001 -168
c-174.667 -120.667 -262 -232.667 -262 -336c0 -66.667 32.5 -123.5 97.5 -170.5s143.833 -70.5 236.5 -70.5c119.333 0 213.5 46.5 282.5 139.5s118.167 239.833 147.5 440.5z" />
    <glyph glyph-name="h" unicode="h" horiz-adv-x="1360" 
d="M173 -12l74.001 308l137 691c48 241.333 138.5 429.166 271.5 563.499s294.833 201.5 485.5 201.5c66 0 126 -7 180 -21l-137 -143c-78 35.333 -144.667 53 -200 53c-106 0 -185.667 -38.5 -239 -115.5s-101.333 -223.5 -144 -439.5l-108 -543h16
c82.667 170.667 176.667 307.834 282 411.501s203 155.5 293 155.5c110 0 165 -60.667 165 -182c0 -40 -5.66699 -88 -17 -144l-97 -488c-15.333 -76.667 -23 -126.667 -23 -150c0 -42 19.667 -63 59 -63c66.667 0 166 73.333 298 220l-18 -93
c-146 -156.667 -277 -235 -393 -235c-96 0 -144 50.333 -144 151c0 33.333 7.66699 90 23 170l98 490c7.33301 38 11 70 11 96c0 54 -20 81 -60 81c-126.667 0 -303.334 -202 -530.001 -606l-72 -357z" />
    <glyph glyph-name="i" unicode="i" horiz-adv-x="771" 
d="M886 303l-18 -93.002c-146 -156.667 -277 -235 -393 -235c-96 0 -144 50.333 -144 151c0 34 7.66699 90 23 168l69 348c18.667 98.667 28 164.334 28 197.001c0 56 -21.667 84 -65 84c-30 0 -83.667 -11.667 -161 -35l12 62l489 160l-76 -320l-98 -494
c-15.333 -77.333 -23 -126.666 -23 -147.999c0 -43.333 19.667 -65 59 -65c66 0 165.333 73.333 298 220zM519 1284l67 136l282 184l-86 -184z" />
    <glyph glyph-name="j" unicode="j" horiz-adv-x="678" 
d="M-436 -644l135.001 141c69.333 -34.667 138.666 -52 207.999 -52c174.667 0 289.667 138.667 345 416l155 781c18 98.667 27 164.334 27 197.001c0 56 -21.333 84 -64 84c-30.667 0 -84.334 -11.667 -161.001 -35l12 62l489 160l-76 -320l-123 -620
c-35.333 -177.333 -73.666 -310.833 -114.999 -400.5s-102 -171.834 -182 -246.501c-135.333 -126 -295 -189 -479 -189c-60 0 -117 7.33301 -171 22zM495.001 1284l67 136l286 184l-89 -184z" />
    <glyph glyph-name="k" unicode="k" horiz-adv-x="1293" 
d="M180 -12l74.001 307.999l137 691c48 241.333 138.5 429.166 271.5 563.499s294.833 201.5 485.5 201.5c66 0 126 -7 180 -21l-137 -143c-78 35.333 -144.667 53 -200 53c-88.667 0 -161.667 -30.333 -219 -91c-33.333 -35.333 -59.5 -79.666 -78.5 -132.999
s-47.5 -163.666 -85.5 -330.999l-99 -437h12c62.667 137.333 145.167 248.5 247.5 333.5s204.5 127.5 306.5 127.5c112.667 0 169 -54.333 169 -163c0 -113.333 -46 -208.333 -138 -285s-223 -129 -393 -157c189.333 -262.667 329.666 -394 420.999 -394
c58 0 130.333 40.333 217 121l-14 -71c-132.667 -124 -238.667 -186 -318 -186c-64 0 -128.5 31.5 -193.5 94.5s-177.167 202.167 -336.5 417.5l-97 -487zM500.001 542.999l-1.99902 -13h34c140 0 261 38 363 114s153 165.667 153 269c0 65.333 -26 98 -78 98
c-112.667 0 -269.334 -156 -470.001 -468z" />
    <glyph glyph-name="l" unicode="l" horiz-adv-x="695" 
d="M804 308l-18.001 -92c-157.333 -160.667 -292.666 -241 -405.999 -241c-94.667 0 -142 51 -142 153c0 42 7 98.333 21 169l137 690c48 241.333 138.5 429.166 271.5 563.499s294.833 201.5 485.5 201.5c66.667 0 126.667 -7 180 -21l-137 -143
c-77.333 35.333 -144 53 -200 53c-106 0 -185.667 -38.667 -239 -116s-101.333 -223.666 -144 -438.999l-157 -790c-15.333 -76.667 -23 -126.667 -23 -150c0 -42 19.667 -63 59 -63c44.667 0 131 59.333 259 178c10 9.33301 27.667 25 53 47z" />
    <glyph glyph-name="m" unicode="m" horiz-adv-x="2097" 
d="M269 -12l74 307.998l98 494c15.333 76.667 23 126.667 23 150c0 41.333 -19.667 62 -59 62c-65.333 0 -164.666 -73 -297.999 -219l18 92c145.333 156.667 276.333 235 393 235c96 0 144 -50.333 144 -151c0 -34 -7.66699 -90.333 -23 -169l-49 -247h14
c85.333 173.333 178.5 311.166 279.5 413.499s194.167 153.5 279.5 153.5c44.667 0 82.167 -17.667 112.5 -53s45.5 -79.333 45.5 -132c0 -38.667 -5.66699 -85 -17 -139l-48 -243h14c74 166.667 161.333 302.834 262 408.501s193 158.5 277 158.5
c118 0 177 -62.667 177 -188c0 -37.333 -5.33301 -83.333 -16 -138l-97 -488c-15.333 -76.667 -23 -126.667 -23 -150c0 -42 19.667 -63 59 -63c66 0 165.333 73.333 298 220l-18 -93c-145.333 -156.667 -276.333 -235 -393 -235c-96.667 0 -145 50.333 -145 151
c0 32.667 8 89.334 24 170.001l97 488c9.33301 44 14 76 14 96c0 55.333 -20.667 83 -62 83c-116 0 -284 -200.333 -504 -601l-75 -362l-196 -12l157 794c8.66699 44 13 76 13 96c0 56.667 -20 85 -60 85c-50 0 -123.833 -58.667 -221.5 -176
s-192.834 -261.666 -285.501 -432.999l-73 -354z" />
    <glyph glyph-name="n" unicode="n" horiz-adv-x="1456" 
d="M269 -12l73.998 307.999l98 494c15.333 76.667 23 126.667 23 150c0 41.333 -19.667 62 -59 62c-65.333 0 -164.666 -73 -297.999 -219l18 92c145.333 156.667 276.333 235 393 235c96 0 144 -50 144 -150c0 -34 -7.66699 -90.667 -23 -170l-49 -247h15
c83.333 170.667 177.5 307.834 282.5 411.501s202.833 155.5 293.5 155.5c109.333 0 164 -60.667 164 -182c0 -39.333 -5.66699 -87.333 -17 -144l-97 -488c-15.333 -77.333 -23 -127.333 -23 -150c0 -42 19.667 -63 59 -63c66.667 0 166.334 73.333 299.001 220l-19 -93
c-145.333 -156.667 -276.333 -235 -393 -235c-96 0 -144 50.333 -144 151c0 33.333 8 90 24 170l97 490c8 38 12 70 12 96c0 54 -20 81 -60 81c-127.333 0 -304 -202 -530 -606l-73 -357z" />
    <glyph glyph-name="o" unicode="o" horiz-adv-x="1193" 
d="M507 -25c-87.333 0 -160.166 34.166 -218.499 102.499s-87.5 153.5 -87.5 255.5c0 192 72.667 369.5 218 532.5s303.666 244.5 474.999 244.5c92.667 0 169 -33.333 229 -100s90 -151.667 90 -255c0 -199.333 -72.667 -379.166 -218 -539.499s-308 -240.5 -488 -240.5z
M621 61.999c98.667 0 185.499 63.5 260.499 190.5s112.5 274.5 112.5 442.5c0 220.667 -67.333 331 -202 331c-95.333 0 -181.166 -65.5 -257.499 -196.5s-114.5 -278.5 -114.5 -442.5c0 -216.667 67 -325 201 -325z" />
    <glyph glyph-name="p" unicode="p" horiz-adv-x="1360" 
d="M-425 -648l134.999 142.998c68 -33.333 138.667 -50 212 -50c170 0 283 140.667 339 422l154 775c18 98.667 27 164.334 27 197.001c0 56 -21.333 84 -64 84c-30.667 0 -84.667 -11.667 -162 -35l13 62l488 160l-76 -323l-49 -244h17c76 168 166.833 304.5 272.5 409.5
s204.834 157.5 297.501 157.5c142 0 213 -88 213 -264c0 -206 -81.167 -401 -243.5 -585s-334.5 -276 -516.5 -276c-18.667 0 -56.667 3.66699 -114 11c-7.33301 0.666992 -18.666 2 -33.999 4c-52.667 -215.333 -143.834 -380.166 -273.501 -494.499
s-290.5 -171.5 -482.5 -171.5c-48 0 -99 6 -153 18zM511.999 140.998c83.333 -36.667 166.666 -55.001 249.999 -55.001c120.667 0 217.334 76.667 290.001 230c86 181.333 129 344.333 129 489c0 104.667 -31 157 -93 157c-56.667 0 -138.667 -60.167 -246 -180.5
s-202.333 -258.166 -285 -413.499z" />
    <glyph glyph-name="q" unicode="q" horiz-adv-x="1271" 
d="M972 543h-14.001c-74.667 -166.667 -164.667 -303 -270 -409s-203.666 -159 -294.999 -159c-138.667 0 -208 88 -208 264c0 193.333 77 383.333 231 570c158.667 192.667 353 289 583 289c79.333 0 176.333 -4 291 -12l-71 -296l-179 -898
c-27.333 -137.333 -41 -232.333 -41 -285c0 -58.667 23 -88 69 -88c39.333 0 94 11.333 164 34l-14 -70l-499 -149l76 321zM1052 942c-73.333 38 -154.666 56.999 -243.999 56.999c-117.333 0 -212 -76.667 -284 -230c-86 -182 -129 -345.333 -129 -490
c0 -104 30.333 -156 91 -156c73.333 0 166.666 76 279.999 228c131.333 174.667 211.333 296.334 240 365.001z" />
    <glyph glyph-name="r" unicode="r" horiz-adv-x="1153" 
d="M282 -12l73.999 307.999l97 489c10 49.333 15 92 15 128c0 57.333 -20 86 -60 86c-70.667 0 -171.667 -75.333 -303 -226l18 89c154 166 287.667 249 401 249c96 0 144 -55 144 -165c0 -48.667 -6 -102.667 -18 -162l-48 -241h13
c79.333 166.667 173.166 302.834 281.499 408.501s207.5 158.5 297.5 158.5c46.667 0 88.334 -10.333 125.001 -31l-133 -180c-39.333 26 -72.666 39 -99.999 39c-130 0 -303 -191 -519 -573l-73 -365z" />
    <glyph glyph-name="s" unicode="s" horiz-adv-x="924" 
d="M69 34l131.001 135.002c86.667 -63.333 175 -95 265 -95c55.333 0 102 14.5 140 43.5s57 64.833 57 107.5c0 47.333 -37.667 112 -113 194l-91 100c-88.667 97.333 -133 178.666 -133 243.999c0 90.667 43 171.167 129 241.5s184.333 105.5 295 105.5
c60.667 0 128.667 -12.667 204 -38l-44 -221h-63l3 17c1.33301 6 2 13 2 21c0 90 -58 135 -174 135c-130 0 -195 -52 -195 -156c0 -52.667 38.667 -122.667 116 -210l82 -91c89.333 -100.667 134 -183.334 134 -248.001c0 -89.333 -47.333 -169 -142 -239
s-202.334 -105 -323.001 -105c-84.667 0 -178 19.667 -280 59z" />
    <glyph glyph-name="t" unicode="t" horiz-adv-x="933" 
d="M455 1012l-229.001 0.000976562l69 74h174l57 283l207 50l-66 -333h377l-82 -88c-86 9.33301 -162.333 14 -229 14h-81l-136 -685c-14 -70.667 -21 -120.334 -21 -149.001c0 -52.667 23.333 -79 70 -79c72 0 170.333 53.333 295 160l-18 -92
c-129.333 -128 -253.666 -192 -372.999 -192c-113.333 0 -170 62.667 -170 188c0 44.667 7.33301 104 22 178z" />
    <glyph glyph-name="u" unicode="u" horiz-adv-x="1428" 
d="M1058 543h-17.001c-189.333 -378.667 -374 -568 -554 -568c-106.667 0 -160 63 -160 189c0 36 5.33301 81 16 135l97 491c15.333 76.667 23 126.667 23 150c0 41.333 -19.667 62 -59 62c-65.333 0 -164.666 -73 -297.999 -219l18 92c145.333 156.667 276.333 235 393 235
c96.667 0 145 -50 145 -150c0 -33.333 -8 -90 -24 -170l-98 -492c-8.66699 -44 -13 -75.333 -13 -94c0 -54 19.667 -81 59 -81c50 0 125.833 60.5 227.5 181.5s195.167 261.833 280.5 422.5l72 359l212 12l-74 -308l-98 -494c-15.333 -76.667 -23 -126.667 -23 -150
c0 -42 19.667 -63 59 -63c66 0 165.333 73.333 298 220l-18 -93c-146 -156.667 -277 -235 -393 -235c-96.667 0 -145 50.333 -145 151c0 34 8 90.667 24 170z" />
    <glyph glyph-name="v" unicode="v" horiz-adv-x="1443" 
d="M620 -25l5.00098 136.001c0 263.333 -24 471.166 -72 623.499s-113 228.5 -195 228.5c-83.333 0 -171.333 -80 -264 -240l29 148c120.667 159.333 233 239 337 239c231.333 0 347 -291.667 347 -875v-55l82 99c243.333 293.333 365 506.666 365 639.999
c0 62.667 -22 118.334 -66 167.001l214 24c32.667 -48.667 49 -93 49 -133c0 -56 -22.833 -119 -68.5 -189s-144.834 -193.667 -297.501 -371l-358 -417z" />
    <glyph glyph-name="w" unicode="w" horiz-adv-x="1935" 
d="M592 -25c3.33301 66 5.00098 131.666 5.00098 196.999c0 298.667 -16.167 506 -48.5 622s-89.833 174 -172.5 174c-78 0 -169 -81.333 -273 -244l26 136c118 166.667 232.333 250 343 250c204.667 0 307 -269 307 -807l-1 -102c226 322.667 355 614.334 387 875.001
l93 22c90.667 -292.667 136 -583.667 136 -873c97.333 126 180 258.667 248 398s102 245 102 317c0 42 -14.667 90.667 -44 146l224 12c11.333 -30.667 17 -59 17 -85c0 -53.333 -30.667 -133.5 -92 -240.5s-162 -254.833 -302 -443.5l-54 -73l-186 -256l-101 -25l3 121
c0 271.333 -17 493.666 -51 666.999c-160.667 -333.333 -313.334 -587.666 -458.001 -762.999z" />
    <glyph glyph-name="x" unicode="x" horiz-adv-x="1454" 
d="M139 0l87.998 183c24.667 -14 52.667 -21 84 -21c101.333 0 228.333 91.333 381 274l60 73l-136 320c-34 80.667 -67.333 121 -100 121c-40 0 -100.667 -54.333 -182 -163l26 131c97.333 128 180.666 192 249.999 192c64.667 0 125.334 -64.667 182.001 -194l114 -261
l65 83c194.667 248 354.334 372 479.001 372c33.333 0 67.666 -11 102.999 -33l-103 -182c-27.333 16.667 -53.666 25 -78.999 25c-110.667 0 -240.667 -91.333 -390 -274l-48 -58l150 -349c34.667 -83.333 69.334 -125 104.001 -125c47.333 0 113.333 49.667 198 149
l-24 -120c-102 -112 -192.333 -168 -271 -168c-75.333 0 -136.333 55 -183 165l-129 306l-81 -103c-192.667 -245.333 -343.334 -368 -452.001 -368c-27.333 0 -62.666 8.33301 -105.999 25z" />
    <glyph glyph-name="y" unicode="y" horiz-adv-x="1420" 
d="M246 -637l138.002 140.002c66 -38.667 136.667 -58 212 -58c92.667 0 164.834 33 216.501 99s98.5 186 140.5 360l155 639h-13c-78 -158.667 -157.333 -288.834 -238 -390.501s-144.334 -152.5 -191.001 -152.5c-48.667 0 -85.167 26.167 -109.5 78.5
s-45.5 149.5 -63.5 291.5l-48 389c-18 144 -48.333 216 -91 216c-41.333 0 -108.333 -58.333 -201 -175l20 102c104.667 138.667 203.667 208 297 208c53.333 0 91.333 -24 114 -72s44 -149 64 -303l42 -334c15.333 -119.333 40.666 -179 75.999 -179
c41.333 0 99.666 57.667 174.999 173l223 371l76 320l213 12l-89 -312l-175 -711c-59.333 -240.667 -153.833 -424.334 -283.5 -551.001s-288.5 -190 -476.5 -190c-71.333 0 -132.333 9.66699 -183 29z" />
    <glyph glyph-name="z" unicode="z" horiz-adv-x="1246" 
d="M143 -25l52 163l853 781c-30.667 -2 -53.667 -3 -69 -3c-28 0 -80.333 4.66699 -157 14l-124 14c-40 5.33301 -74 8 -102 8c-93.333 0 -187.666 -40 -282.999 -120l17 87c137.333 120 260.333 180 369 180c29.333 0 64 -2.66699 104 -8l86 -11
c44 -5.33301 82.667 -8 116 -8c92.667 0 174.667 12.667 246 38l-52 -166l-808 -765c40 4 72.667 6 98 6c49.333 0 88.333 -2 117 -6l66 -10c45.333 -6.66699 89.666 -10 132.999 -10c152.667 0 283 49.333 391 148l-19 -96c-142.667 -148.667 -276 -223 -400 -223
c-30 0 -75.667 3.33301 -137 10l-72 7c-43.333 4.66699 -95 7 -155 7c-103.333 0 -193.333 -12.333 -270 -37z" />
    <glyph glyph-name="braceleft" unicode="{" horiz-adv-x="722" 
d="M968 1727l-11 -59.999c-82 -6.66699 -139.5 -31.167 -172.5 -73.5s-52.167 -116.5 -57.5 -222.5l-6 -135c-8 -156.667 -33.833 -274 -77.5 -352s-118.167 -139 -223.5 -183c100 -50 150 -128.667 150 -236c0 -49.333 -16.333 -122 -49 -218l-63 -189
c-24.667 -70 -37 -119.333 -37 -148c0 -75.333 52.333 -123.333 157 -144l-13 -62c-202.667 25.333 -304 105.666 -304 240.999c0 51.333 16.667 124.666 50 219.999l70 205c32 92.667 48 158.334 48 197.001c0 74.667 -52.667 112 -158 112h-51l12 61h45
c100 0 166.167 22.333 198.5 67s53.5 143 63.5 295l13 196c10 146.667 47 253 111 319s165.667 102.667 305 110z" />
    <glyph glyph-name="bar" unicode="|" horiz-adv-x="493" 
d="M120 -296l373 1875h136l-373 -1875h-136z" />
    <glyph glyph-name="braceright" unicode="}" horiz-adv-x="722" 
d="M38 -296l12.002 61.0029c81.333 5.33301 138.666 29.5 171.999 72.5s52.333 117.167 57 222.5l7 136c7.33301 155.333 33 272.166 77 350.499s118.667 139.5 224 183.5c-100 50 -150 128.667 -150 236c0 49.333 16 122 48 218l63 189c24.667 70 37 119.333 37 148
c0 74.667 -52 123 -156 145l12 61c202.667 -24 304 -104.333 304 -241c0 -50.667 -16.333 -124 -49 -220l-70 -205c-32 -92.667 -48 -158.334 -48 -197.001c0 -74 52.667 -111 158 -111h50l-12 -62h-44c-100.667 0 -167.167 -22.333 -199.5 -67s-53.5 -143 -63.5 -295
l-13 -196c-9.33301 -146.667 -45.833 -252.834 -109.5 -318.501s-165.834 -102.5 -306.501 -110.5z" />
    <glyph glyph-name="asciitilde" unicode="~" 
d="M192 438c58 226.667 167 340 327 340c50 0 130 -31.667 240 -95l111 -64c92 -52.667 161.333 -79 208 -79c75.333 0 141 64.667 197 194h62c-65.333 -218 -175 -327 -329 -327c-62.667 0 -141.667 27.333 -237 82l-110 63c-103.333 60.667 -173 91 -209 91
c-77.333 0 -143.333 -68.333 -198 -205h-62z" />
    <glyph glyph-name="nonbreakingspace" unicode="&#xa0;" horiz-adv-x="1360" 
 />
    <glyph glyph-name="exclamdown" unicode="&#xa1;" horiz-adv-x="518" 
d="M607 959l-155 -120l-118 161l156 110zM451 699l-87 -794l-59 -300l-205 -37l67 337l229 776z" />
    <glyph glyph-name="cent" unicode="&#xa2;" horiz-adv-x="962" 
d="M508 -25l53.001 270.001c-242 17.333 -363 100 -363 248c0 96 46.167 179.167 138.5 249.5s208.166 110.833 347.499 121.5l49 246h62l-49 -246c92.667 -4 175 -13.667 247 -29l-36 -181h-62c0 6 0.333008 14 1 24c2.66699 20 4 33.333 4 40
c0 51.333 -55.333 79.666 -166 84.999l-97 -486c100.667 0 194 24 280 72l-14 -72c-98.667 -48 -192 -72 -280 -72l-54 -270h-61zM576.001 323.001l96 480.001c-196.667 -28.667 -295 -119 -295 -271c0 -118.667 66.333 -188.334 199 -209.001z" />
    <glyph glyph-name="sterling" unicode="&#xa3;" horiz-adv-x="1214" 
d="M24 0l126.997 122.999h19c99.333 0 169 22.5 209 67.5s74.333 140.167 103 285.5l13 67h-222l12 62h222l18 87c26.667 132.667 81.5 235.667 164.5 309s185.833 110 308.5 110c73.333 0 153.666 -16 240.999 -48l-48 -249h-69l3 17c2 9.33301 3 19.333 3 30
c0 116.667 -61.333 175 -184 175c-60.667 0 -104.667 -16.667 -132 -50s-50.666 -98.666 -69.999 -195.999l-37 -185h334l-13 -62h-333l-9 -44c-17.333 -87.333 -47.166 -157.333 -89.499 -210s-113.166 -108 -212.499 -166h284c128 0 220.5 6.66699 277.5 20
s121.5 43 193.5 89l-15 -74c-67.333 -72.667 -133.166 -121.667 -197.499 -147s-154.833 -38 -271.5 -38l-39 1z" />
    <glyph glyph-name="currency" unicode="&#xa4;" 
d="M1068 448l153 -191.999l-52 -43l-153 192c-106.667 -72 -212 -108 -316 -108c-102 0 -191.667 36 -269 108l-230 -192l-35 43l231 192c-40 68.667 -60 137 -60 205c0 132 58.667 258.333 176 379l-153 193l52 43l153 -192c106 72 211.333 108 316 108
c102 0 191.667 -36 269 -108l230 192l35 -43l-231 -193c40 -69.333 60 -137.333 60 -204c0 -130.667 -58.667 -257.334 -176 -380.001zM1136 804.001c0 80.667 -25.833 146.665 -77.5 197.998s-117.5 77 -197.5 77c-108.667 0 -205.167 -41.167 -289.5 -123.5
s-126.5 -176.166 -126.5 -281.499c0 -79.333 26 -144.666 78 -195.999s118 -77 198 -77c107.333 0 203.333 41.167 288 123.5s127 175.5 127 279.5z" />
    <glyph glyph-name="yen" unicode="&#xa5;" horiz-adv-x="1340" 
d="M216 0l127.003 137.997c20.667 -2 35.334 -3 44.001 -3c126 0 218 74.333 276 223h-286l12 61h290c5.33301 40.667 9.66602 90.334 12.999 149.001h-274l12 61h262c0.666992 11.333 1 19 1 23c0 90 -16.333 164.667 -49 224s-73.667 89 -123 89
c-48.667 0 -106.334 -26.167 -173.001 -78.5s-118.667 -112.166 -156 -179.499l-45 34c61.333 108 136.833 196.5 226.5 265.5s174.167 103.5 253.5 103.5c148.667 0 223 -130 223 -390l-1 -64c116 302.667 282.667 454 500 454c68 0 127.333 -15.667 178 -47l-116 -155
c-46 28 -92.667 42 -140 42c-160.667 0 -283 -107 -367 -321h256l-12 -61h-256l-11 -56c-6.66699 -31.333 -18.334 -62.333 -35.001 -93h272l-13 -61h-293c-60.667 -111.333 -151.334 -188.666 -272.001 -231.999l326 -19l-125 -132z" />
    <glyph glyph-name="brokenbar" unicode="&#xa6;" horiz-adv-x="493" 
d="M120 -296l162 814h136l-162 -814h-136zM331 765l162 814h136l-162 -814h-136z" />
    <glyph glyph-name="section" unicode="&#xa7;" 
d="M149 -213l174 101.998c107.333 -90.667 222.333 -136 345 -136c77.333 0 142.333 23.167 195 69.5s79 103.5 79 171.5c0 48 -15.333 87.333 -46 118s-91.667 67.334 -183 110.001l-102 47c-179.333 83.333 -269 183 -269 299c0 110.667 75.333 223 226 337
c-74.667 60.667 -112 136.667 -112 228c0 112.667 51.667 204.834 155 276.501s236.333 107.5 399 107.5c80 0 175.333 -15 286 -45l-50 -251h-61c3.33301 22.667 5 40 5 52c0 114 -94.667 171 -284 171c-86 0 -156.333 -24.167 -211 -72.5s-82 -110.5 -82 -186.5
c0 -50.667 11.5 -87.167 34.5 -109.5s90.833 -63.5 203.5 -123.5l85 -47c166.667 -90.667 250 -187 250 -289c0 -114.667 -70 -227.334 -210 -338.001c91.333 -59.333 137 -133.666 137 -222.999c0 -106 -54 -195.167 -162 -267.5s-241.333 -108.5 -400 -108.5
c-141.333 0 -275.333 36 -402 108zM926 316.998c74.667 84 112.001 161 112.001 231c0 69.333 -55 131 -165 185l-98 48c-58 28.667 -110.333 57.334 -157 86.001c-84 -73.333 -126 -151 -126 -233c0 -68.667 55.667 -129.334 167 -182.001l134 -64
c33.333 -15.333 77.666 -39 132.999 -71z" />
    <glyph glyph-name="dieresis" unicode="&#xa8;" horiz-adv-x="1197" 
d="M688 1283l-122 152l157 119l119 -161zM1167 1283l-122 155l157 116l119 -159z" />
    <glyph glyph-name="copyright" unicode="&#xa9;" horiz-adv-x="1727" 
d="M1008 -37c-214 0 -397 76 -549 228s-228 335 -228 549c0 214.667 76 397.834 228 549.501s335 227.5 549 227.5c214.667 0 398 -75.833 550 -227.5s228 -334.834 228 -549.501c0 -214 -76 -397 -228 -549s-335.333 -228 -550 -228zM1008 25c197.333 0 366 70 506 210
s210 308.333 210 505c0 197.333 -70 366 -210 506s-308.667 210 -506 210c-196.667 0 -365 -70 -505 -210s-210 -308.667 -210 -506c0 -196.667 70 -365 210 -505s308.333 -210 505 -210zM1236 341c-97.333 -30 -183.667 -45 -259 -45
c-114.667 0 -205.167 30.833 -271.5 92.5s-99.5 145.834 -99.5 252.501c0 151.333 48.667 277.666 146 378.999s219 152 365 152c85.333 0 177.333 -14 276 -42l-50 -192l-72 12l11 114c-64 30 -124.667 45 -182 45c-96 0 -177.5 -45.5 -244.5 -136.5
s-100.5 -201.5 -100.5 -331.5c0 -176.667 82.667 -265 248 -265c94 0 177.333 16.667 250 50z" />
    <glyph glyph-name="ordfeminine" unicode="&#xaa;" horiz-adv-x="987" 
d="M1188 1001l-21.999 -101c-116.667 -122.667 -217 -184 -301 -184c-77.333 0 -116 42 -116 126c0 42 7.33301 93 22 153l29 115h-41c-50.667 -114.667 -111.334 -209.167 -182.001 -283.5s-135 -111.5 -193 -111.5c-87.333 0 -131 67.333 -131 202
c0 149.333 53 288.333 159 417c100.667 122 236.667 183 408 183c60.667 0 137.667 -4 231 -12l-67 -276l-42 -205c-16 -84 -24 -134.333 -24 -151c0 -32 13.333 -48 40 -48c48 0 124.667 58.667 230 176zM825.001 1300l20.001 95c-54.667 25.333 -108 38 -160 38
c-76.667 0 -140.834 -43.333 -192.501 -130s-77.5 -195 -77.5 -325c0 -72 19.333 -108 58 -108c64.667 0 182 143.333 352 430z" />
    <glyph glyph-name="guillemotleft" unicode="&#xab;" horiz-adv-x="1172" 
d="M515 99c-66 153.333 -162 301.333 -288 444c176 107.333 301 229 375 365l207 79c-46.667 -112 -172.667 -237 -378 -375c100 -120.667 185.333 -261 256 -421zM921 99c-76 178.667 -171.999 326.665 -287.999 443.998c184 126.667 309 250.334 375 371.001l207 73
c-47.333 -110 -173.333 -233 -378 -369c99.333 -119.333 184.666 -259.666 255.999 -420.999z" />
    <glyph glyph-name="logicalnot" unicode="&#xac;" 
d="M246 709l22 111h1086l-95 -475h-129l72 364h-956z" />
    <glyph glyph-name="sfthyphen" unicode="&#xad;" horiz-adv-x="642" 
d="M195 543l42 148h456l-42 -148h-456z" />
    <glyph glyph-name="registered" unicode="&#xae;" horiz-adv-x="1246" 
d="M806 617c-122.667 0 -227.332 43.333 -313.999 130s-130 191.334 -130 314.001s43.333 227.334 130 314.001s191.334 130 314.001 130c123.333 0 228.166 -43.333 314.499 -130s129.5 -191.334 129.5 -314.001s-43.333 -227.334 -130 -314.001
s-191.334 -130 -314.001 -130zM806.002 672c106 0 197.333 38.333 274 115s115 168 115 274s-38.333 197.333 -115 274s-168 115 -274 115s-197.167 -38.333 -273.5 -115s-114.5 -168 -114.5 -274s38.167 -197.333 114.5 -274s167.5 -115 273.5 -115zM735.002 1024l-39 -197
h-148l12 61h74l76 383h-74l12 61h182c142.667 0 214 -39 214 -117c0 -69.333 -47 -127.333 -141 -174l48 -153h86l-12 -61h-135l-69 197h-86zM747.002 1086h50c113.333 0 170 39 170 117c0 45.333 -41.333 68 -124 68h-59z" />
    <glyph glyph-name="degree" unicode="&#xb0;" horiz-adv-x="567" 
d="M549 1172c-48 0 -88.833 16.833 -122.5 50.5s-50.5 74.5 -50.5 122.5s16.833 88.667 50.5 122s74.5 50 122.5 50s88.667 -16.667 122 -50s50 -74 50 -122s-16.667 -88.833 -50 -122.5s-74 -50.5 -122 -50.5zM549 1234c29.333 0 55 11 77 33s33 48 33 78
c0 29.333 -11 55.166 -33 77.499s-47.667 33.5 -77 33.5c-30 0 -56 -11.167 -78 -33.5s-33 -48.166 -33 -77.499c0 -30 11 -56 33 -78s48 -33 78 -33z" />
    <glyph glyph-name="plusminus" unicode="&#xb1;" 
d="M105 0l22 111h1086l-22 -111h-1086zM651 296l78 389h-488l22 111h488l77 388h111l-77 -388h487l-22 -111h-487l-78 -389h-111z" />
    <glyph glyph-name="twosuperior" unicode="&#xb2;" horiz-adv-x="827" 
d="M260 716l28 142.003c143.333 87.333 257.833 173.166 343.5 257.499s128.5 153.166 128.5 206.499c0 86.667 -39 130 -117 130c-102.667 0 -163.667 -54.333 -183 -163h-74l37 182c88 30.667 171.333 46 250 46c175.333 0 263 -61.333 263 -184
c0 -66.667 -22.833 -120.834 -68.5 -162.501s-197.5 -146.167 -455.5 -313.5h431l-28 -141h-555z" />
    <glyph glyph-name="threesuperior" unicode="&#xb3;" horiz-adv-x="827" 
d="M257 757l101.001 104c73.333 -59.333 147.666 -89 222.999 -89c38.667 0 72.167 14.5 100.5 43.5s42.5 63.167 42.5 102.5c0 106.667 -81.667 160 -245 160c-20 0 -40.667 -1.33301 -62 -4l43 118c17.333 2 33.333 3 48 3c43.333 0 90 -5.33301 140 -16
c74.667 34.667 112 86.667 112 156c0 78.667 -43.333 118 -130 118c-82 0 -133.667 -48.333 -155 -145h-74l32 161c80 32 159.667 48 239 48c165.333 0 248 -50.333 248 -151c0 -84 -66 -155.667 -198 -215c97.333 -35.333 146 -98 146 -188
c0 -72 -32.667 -132.333 -98 -181s-147 -73 -245 -73c-82.667 0 -172 16 -268 48z" />
    <glyph glyph-name="acute" unicode="&#xb4;" horiz-adv-x="1197" 
d="M770 1283l32 90.001c89.333 75.333 219.333 164.666 390 267.999l-65 -160c-166.667 -83.333 -285.667 -149.333 -357 -198z" />
    <glyph glyph-name="mu" unicode="&#xb5;" horiz-adv-x="1378" 
d="M139 -419l75.9971 313.999l160 800c10.667 55.333 16 106.666 16 153.999c0 76 -35 155 -105 237l225 12c54.667 -47.333 82 -125 82 -233c0 -43.333 -8.66699 -108.666 -26 -195.999l-75 -373c-6.66699 -34 -10 -58 -10 -72c0 -50.667 20.667 -76 62 -76
c50.667 0 125.834 56.833 225.501 170.5s191.834 247.834 276.501 402.501l73 365l212 12l-74 -308l-98 -494c-15.333 -74.667 -23 -124.334 -23 -149.001c0 -48.667 20 -73 60 -73c65.333 0 164.333 76.333 297 229l-18 -93c-145.333 -156.667 -276.333 -235 -393 -235
c-96 0 -144 50.333 -144 151c0 34.667 7.66699 91.334 23 170.001l49 247h-14c-185.333 -362 -372.666 -543 -561.999 -543l-80 -395z" />
    <glyph glyph-name="paragraph" unicode="&#xb6;" 
d="M507 -333l203 1022c-250 42 -375 158.333 -375 349c0 118.667 48.833 220.667 146.5 306s228.167 140 391.5 164l43 219h62l-43 -219l41 1c38.667 0 82 -3 130 -9l44 227h62l-47 -240c48 -13.333 98.333 -29.333 151 -48l-13 -66c-36.667 15.333 -87 31.666 -151 48.999
l-121 -608c48 16 106.667 42 176 78l-15 -78c-60 -34 -118.667 -60 -176 -78l-213 -1069h-62l209 1047c-80.667 -16.667 -140 -25 -178 -25l-203 -1022h-62zM965 789.001l127.999 644c-45.333 8 -83.666 12 -114.999 12c-12 0 -30.667 -1 -56 -3l-134 -674
c54 0 113 7 177 21z" />
    <glyph glyph-name="cedilla" unicode="&#xb8;" horiz-adv-x="1197" 
d="M634 0l-58.999 -89c66 -20.667 99 -59 99 -115c0 -47.333 -26.333 -91 -79 -131s-110.667 -60 -174 -60c-28.667 0 -59.334 3.33301 -92.001 10l76 106c32 -20.667 60 -31 84 -31c59.333 0 89 24 89 72c0 55.333 -45.667 83 -137 83l106 155h87z" />
    <glyph glyph-name="onesuperior" unicode="&#xb9;" horiz-adv-x="827" 
d="M796 1517l-120 -604c-10 -47.333 -15 -79 -15 -95c0 -18 26 -29.667 78 -35l82 -6l-12 -61h-518l12 61l85 6c45.333 3.33301 72.333 10 81 20s20 46.667 34 110l77 389c4.66699 21.333 7 40.333 7 57c0 24 -31.333 40.333 -94 49l-62 10l12 62z" />
    <glyph glyph-name="ordmasculine" unicode="&#xba;" horiz-adv-x="987" 
d="M586 715c-78 0 -141.167 23.1689 -189.5 69.502s-72.5 107.166 -72.5 182.499c0 139.333 52.833 265.833 158.5 379.5s223.167 170.5 352.5 170.5c80.667 0 145.5 -23.333 194.5 -70s73.5 -108.334 73.5 -185.001c0 -139.333 -53.167 -265.333 -159.5 -378
s-225.5 -169 -357.5 -169zM656 789.002c65.333 0 124.833 45.832 178.5 137.499s80.5 193.834 80.5 306.501c0 140.667 -48.667 211 -146 211c-66 0 -125.333 -44.833 -178 -134.5s-79 -190.5 -79 -302.5c0 -145.333 48 -218 144 -218z" />
    <glyph glyph-name="guillemotright" unicode="&#xbb;" horiz-adv-x="1172" 
d="M873 987c66.667 -154 162.666 -301.999 287.999 -443.999c-175.333 -106.667 -300.333 -228.334 -375 -365.001l-207 -79c46.667 111.333 172.667 236.333 378 375c-99.333 119.333 -184.666 259.333 -255.999 420zM466.999 987.001
c76 -179.333 171.999 -327.333 287.999 -444c-184 -127.333 -309 -251 -375 -371l-207 -73c47.333 110.667 173.333 233.667 378 369c-99.333 119.333 -184.666 259.333 -255.999 420z" />
    <glyph glyph-name="onequarter" unicode="&#xbc;" horiz-adv-x="1752" 
d="M759 1517l-120 -603.999c-9.33301 -48 -14 -79.667 -14 -95c0 -18 25.667 -29.667 77 -35l83 -6l-13 -61h-518l12 61l85 6c45.333 3.33301 72.5 10.166 81.5 20.499s20.167 46.833 33.5 109.5l77 389c4.66699 21.333 7 40.333 7 57c0 24 -31.333 40.333 -94 49l-62 10
l12 62zM247 -36.999l1417 1554h138l-1419 -1554h-136zM1363 228.001l-347 24l22 110l492 440h95l-94 -474l153 -10l-61 -110l-114 9c-9.33301 -50.667 -14 -88.667 -14 -114c0 -20 24.667 -31.667 74 -35l82 -6l-12 -62h-500l12 62l79 6
c47.333 3.33301 77.833 10.333 91.5 21s23.5 35 29.5 73c2.66699 16 6.66699 38 12 66zM1385 339.001l56 281l-299 -266z" />
    <glyph glyph-name="onehalf" unicode="&#xbd;" horiz-adv-x="1752" 
d="M734 1517l-120 -603.999c-9.33301 -48 -14 -79.667 -14 -95c0 -18 25.667 -29.667 77 -35l83 -6l-13 -61h-518l12 61l85 6c45.333 3.33301 72.5 10.166 81.5 20.499s20.167 46.833 33.5 109.5l77 389c4.66699 21.333 7 40.333 7 57c0 24 -31.333 40.333 -94 49l-62 10
l12 62zM222 -36.999l1417 1554h138l-1419 -1554h-136zM1080 0.000976562l28 143.002c143.333 87.333 257.833 173 343.5 257s128.5 152.667 128.5 206c0 86.667 -39.333 130 -118 130c-102 0 -162.667 -54 -182 -162h-74l36 181c88 31.333 171.333 47 250 47
c176 0 264 -61.667 264 -185c0 -66.667 -23 -120.834 -69 -162.501s-197.667 -145.834 -455 -312.501h431l-28 -142h-555z" />
    <glyph glyph-name="threequarters" unicode="&#xbe;" horiz-adv-x="1752" 
d="M241 757l101.001 104c73.333 -59.333 147.666 -89 222.999 -89c38.667 0 72.167 14.5 100.5 43.5s42.5 63.167 42.5 102.5c0 106.667 -81.667 160 -245 160c-20 0 -40.667 -1.33301 -62 -4l43 118c17.333 2 33.333 3 48 3c43.333 0 90 -5.33301 140 -16
c74.667 34.667 112 86.667 112 156c0 78.667 -43.333 118 -130 118c-82 0 -133.667 -48.333 -155 -145h-74l32 161c80 32 159.667 48 239 48c165.333 0 248 -50.333 248 -151c0 -84 -66 -155.667 -198 -215c97.333 -35.333 146 -98 146 -188
c0 -72 -32.667 -132.333 -98 -181s-147 -73 -245 -73c-82.667 0 -172 16 -268 48zM247.001 -37l1417 1554h138l-1419 -1554h-136zM1363 228l-347 24l22 110l492 440h95l-94 -474l153 -10l-61 -110l-114 9c-9.33301 -50.667 -14 -88.667 -14 -114
c0 -20 24.667 -31.667 74 -35l82 -6l-12 -62h-500l12 62l79 6c48 3.33301 78.667 10.333 92 21s23 35 29 73c2.66699 16 6.66699 38 12 66zM1385 339l56 281l-299 -266z" />
    <glyph glyph-name="questiondown" unicode="&#xbf;" horiz-adv-x="1024" 
d="M911 965l-159 -126l-120 165l157 106zM817 698c-12.667 -112.667 -90.667 -230.332 -234 -352.999l-41 -35c-158.667 -135.333 -238 -281 -238 -437c0 -72.667 20 -131.334 60 -176.001s92.333 -67 157 -67c151.333 0 247.333 82.333 288 247h62l-47 -237
c-138 -48 -260.333 -72 -367 -72c-110.667 0 -199.667 24.833 -267 74.5s-101 115.167 -101 196.5c0 110 69.333 224 208 342l105 89c113.333 96 183.333 210 210 342l6 28z" />
    <glyph glyph-name="Agrave" unicode="&#xc0;" horiz-adv-x="1996" 
d="M91 84l135.002 136c63.333 -97.333 146.333 -146 249 -146c98 0 190.167 40.833 276.5 122.5s189.5 226.5 309.5 434.5l431 744c-72.667 8.66699 -135 13 -187 13c-139.333 0 -246.833 -34.833 -322.5 -104.5s-113.5 -169.167 -113.5 -298.5l-196 -97
c12.667 125.333 47.667 229 105 311c63.333 91.333 138 156.333 224 195s210.667 63.667 374 75c32.667 2 82 5.66699 148 11l204 37l13 -333l58 -691c13.333 -160.667 32.166 -266.5 56.499 -317.5s68.166 -76.5 131.499 -76.5c11.333 0 50.333 2 117 6l-13 -66l-459 -76
l-41 493h-545c-105.333 -182.667 -205 -310.5 -299 -383.5s-206 -109.5 -336 -109.5c-123.333 0 -230 40.333 -320 121zM1089 530h495l-64 751zM1748 1683l-126.001 -79.001c-48 96.667 -117.333 185.334 -208 266.001l119 92c82.667 -82.667 154.334 -175.667 215.001 -279
z" />
    <glyph glyph-name="Aacute" unicode="&#xc1;" horiz-adv-x="1996" 
d="M91 84l135.002 136c63.333 -97.333 146.333 -146 249 -146c98 0 190.167 40.833 276.5 122.5s189.5 226.5 309.5 434.5l431 744c-72.667 8.66699 -135 13 -187 13c-139.333 0 -246.833 -34.833 -322.5 -104.5s-113.5 -169.167 -113.5 -298.5l-196 -97
c12.667 125.333 47.667 229 105 311c63.333 91.333 138 156.333 224 195s210.667 63.667 374 75c32.667 2 82 5.66699 148 11l204 37l13 -333l58 -691c13.333 -160.667 32.166 -266.5 56.499 -317.5s68.166 -76.5 131.499 -76.5c11.333 0 50.333 2 117 6l-13 -66l-459 -76
l-41 493h-545c-105.333 -182.667 -205 -310.5 -299 -383.5s-206 -109.5 -336 -109.5c-123.333 0 -230 40.333 -320 121zM1089 530h495l-64 751zM1505 1604l32 90.001c89.333 75.333 219.333 164.666 390 267.999l-65 -160c-166.667 -83.333 -285.667 -149.333 -357 -198z
" />
    <glyph glyph-name="Acircumflex" unicode="&#xc2;" horiz-adv-x="1996" 
d="M91 84l135.002 136c63.333 -97.333 146.333 -146 249 -146c98 0 190.167 40.833 276.5 122.5s189.5 226.5 309.5 434.5l431 744c-72.667 8.66699 -135 13 -187 13c-139.333 0 -246.833 -34.833 -322.5 -104.5s-113.5 -169.167 -113.5 -298.5l-196 -97
c12.667 125.333 47.667 229 105 311c63.333 91.333 138 156.333 224 195s210.667 63.667 374 75c32.667 2 82 5.66699 148 11l204 37l13 -333l58 -691c13.333 -160.667 32.166 -266.5 56.499 -317.5s68.166 -76.5 131.499 -76.5c11.333 0 50.333 2 117 6l-13 -66l-459 -76
l-41 493h-545c-105.333 -182.667 -205 -310.5 -299 -383.5s-206 -109.5 -336 -109.5c-123.333 0 -230 40.333 -320 121zM1089 530h495l-64 751zM1859 1676l-122.001 -72.0029c-50 55.333 -91.667 128.333 -125 219c-37.333 -45.333 -92.333 -104.666 -165 -177.999
c-3.33301 -3.33301 -12.666 -13.666 -27.999 -30.999l-142 -10c143.333 104.667 246.333 195.334 309 272.001l136 86c30 -104 75.667 -199.333 137 -286z" />
    <glyph glyph-name="Atilde" unicode="&#xc3;" horiz-adv-x="1996" 
d="M91 84l135.002 136c63.333 -97.333 146.333 -146 249 -146c98 0 190.167 40.833 276.5 122.5s189.5 226.5 309.5 434.5l431 744c-72.667 8.66699 -135 13 -187 13c-139.333 0 -246.833 -34.833 -322.5 -104.5s-113.5 -169.167 -113.5 -298.5l-196 -97
c12.667 125.333 47.667 229 105 311c63.333 91.333 138 156.333 224 195s210.667 63.667 374 75c32.667 2 82 5.66699 148 11l204 37l13 -333l58 -691c13.333 -160.667 32.166 -266.5 56.499 -317.5s68.166 -76.5 131.499 -76.5c11.333 0 50.333 2 117 6l-13 -66l-459 -76
l-41 493h-545c-105.333 -182.667 -205 -310.5 -299 -383.5s-206 -109.5 -336 -109.5c-123.333 0 -230 40.333 -320 121zM1089 530h495l-64 751zM1318 1618l-70 -14c10.667 70 36.5 126.5 77.5 169.5s89.167 64.5 144.5 64.5c32 0 74.667 -15 128 -45l34 -19
c49.333 -27.333 87 -41 113 -41c38 0 72 33 102 99l66 19c-24 -164.667 -96 -247 -216 -247c-42 0 -87 13 -135 39l-46 26c-44 24 -78.333 36 -103 36c-39.333 0 -71 -29 -95 -87z" />
    <glyph glyph-name="Adieresis" unicode="&#xc4;" horiz-adv-x="1996" 
d="M91 84l135.002 136c63.333 -97.333 146.333 -146 249 -146c98 0 190.167 40.833 276.5 122.5s189.5 226.5 309.5 434.5l431 744c-72.667 8.66699 -135 13 -187 13c-139.333 0 -246.833 -34.833 -322.5 -104.5s-113.5 -169.167 -113.5 -298.5l-196 -97
c12.667 125.333 47.667 229 105 311c63.333 91.333 138 156.333 224 195s210.667 63.667 374 75c32.667 2 82 5.66699 148 11l204 37l13 -333l58 -691c13.333 -160.667 32.166 -266.5 56.499 -317.5s68.166 -76.5 131.499 -76.5c11.333 0 50.333 2 117 6l-13 -66l-459 -76
l-41 493h-545c-105.333 -182.667 -205 -310.5 -299 -383.5s-206 -109.5 -336 -109.5c-123.333 0 -230 40.333 -320 121zM1089 530h495l-64 751zM1325 1604l-122 152l157 119l119 -161zM1804 1604l-122 155l157 116l119 -159z" />
    <glyph glyph-name="Aring" unicode="&#xc5;" horiz-adv-x="1996" 
d="M91 84l135.002 136c63.333 -97.333 146.333 -146 249 -146c98 0 190.167 40.833 276.5 122.5s189.5 226.5 309.5 434.5l431 744c-72.667 8.66699 -135 13 -187 13c-139.333 0 -246.833 -34.833 -322.5 -104.5s-113.5 -169.167 -113.5 -298.5l-196 -97
c12.667 125.333 47.667 229 105 311c63.333 91.333 138 156.333 224 195s210.667 63.667 374 75c32.667 2 82 5.66699 148 11l28 8c-56.667 30 -85 75 -85 135c0 42 15 78.167 45 108.5s66.333 45.5 109 45.5c42 0 78.167 -15 108.5 -45s45.5 -66 45.5 -108
c0 -39.333 -13.667 -76.333 -41 -111l7 -329l58 -691c13.333 -160.667 32.166 -266.5 56.499 -317.5s68.166 -76.5 131.499 -76.5c11.333 0 50.333 2 117 6l-13 -66l-459 -76l-41 493h-545c-105.333 -182.667 -205 -310.5 -299 -383.5s-206 -109.5 -336 -109.5
c-123.333 0 -230 40.333 -320 121zM1089 530h495l-64 751zM1535 1622c0 -57.333 28.667 -86 86 -86s86 28.667 86 86c0 58 -28.667 87 -86 87s-86 -29 -86 -87z" />
    <glyph glyph-name="AE" unicode="&#xc6;" horiz-adv-x="2364" 
d="M85 84l135.002 138.001c67.333 -98.667 150.333 -148 249 -148c75.333 0 150 28.667 224 86s167 158.333 279 303l691 895c-114.667 24 -226 36 -334 36c-128 0 -230.333 -36.833 -307 -110.5s-115 -172.167 -115 -295.5l-192 -98
c20.667 277.333 157 454.666 409 531.999c128 38.667 366 58 714 58h689l-88 -283h-64c6 26.667 9 50 9 70c0 52.667 -30.333 89 -91 109s-170.334 30 -329.001 30h-32l-115 -592h446l-102 -103c-152 19.333 -255 29 -309 29h-50l-88 -436c-6.66699 -36 -10 -65 -10 -87
c0 -40 24.167 -67.833 72.5 -83.5s134.166 -23.5 257.499 -23.5c101.333 0 201 37.333 299 112l-15 -79c-114.667 -116 -217.667 -174 -309 -174c-15.333 0 -36.333 0.666992 -63 2l-502 29l92 463h-470l-139 -181c-92.667 -119.333 -176.5 -202.333 -251.5 -249
s-162.833 -70 -263.5 -70c-126.667 0 -235.667 40.333 -327 121zM1122 524.001h427l151 760z" />
    <glyph glyph-name="Ccedilla" unicode="&#xc7;" horiz-adv-x="1400" 
d="M1332 91c-173.333 -70.667 -335.002 -113.001 -485.002 -127.001l-37 -55c66.667 -18 100 -55.333 100 -112c0 -48 -26.167 -92 -78.5 -132s-110.166 -60 -173.499 -60c-33.333 0 -64.666 2.33301 -93.999 7l77 107c30.667 -21.333 58.667 -32 84 -32
c58.667 0 88 24 88 72c0 52 -45.333 80.333 -136 85l79 117c-180.667 15.333 -313.167 66 -397.5 152s-126.5 214 -126.5 384c0 286.667 89.833 528.5 269.5 725.5s400.5 295.5 662.5 295.5c154 0 297 -19.667 429 -59l-85 -275h-63c6.66699 31.333 10 57 10 77
c0 58 -31.667 105 -95 141s-145.666 54 -246.999 54c-152.667 0 -286.334 -68 -401.001 -204c-76 -90 -138 -201.667 -186 -335s-72 -259.666 -72 -378.999c0 -144 37.833 -257.333 113.5 -340s179.5 -124 311.5 -124c148 0 305.333 37.333 472 112z" />
    <glyph glyph-name="Egrave" unicode="&#xc8;" horiz-adv-x="1506" 
d="M210 0l147.999 148.001h17c101.333 0 171.166 21 209.499 63s71.5 134.333 99.5 277l182 914c-137.333 0 -248.333 -36.833 -333 -110.5s-127 -169.834 -127 -288.501v-22l-194 -94c16.667 202 96 351.333 238 448s352.333 145 631 145h588l-89 -283h-63
c5.33301 26 8 49.333 8 70c0 52.667 -30.167 89 -90.5 109s-170.166 30 -329.499 30h-31l-116 -592h446l-102 -103c-151.333 19.333 -254.333 29 -309 29h-50l-21 -108c-23.333 -121.333 -58.833 -217.5 -106.5 -288.5s-124.167 -141.5 -229.5 -211.5l480 -19l105 -3
c108.667 0 210.334 37.667 305.001 113l-16 -81c-118 -119.333 -229 -179 -333 -179l-46 1zM1417 1683l-126.001 -79.001c-48 96.667 -117.333 185.334 -208 266.001l119 92c82.667 -82.667 154.334 -175.667 215.001 -279z" />
    <glyph glyph-name="Eacute" unicode="&#xc9;" horiz-adv-x="1506" 
d="M210 0l147.999 148.001h17c101.333 0 171.166 21 209.499 63s71.5 134.333 99.5 277l182 914c-137.333 0 -248.333 -36.833 -333 -110.5s-127 -169.834 -127 -288.501v-22l-194 -94c16.667 202 96 351.333 238 448s352.333 145 631 145h588l-89 -283h-63
c5.33301 26 8 49.333 8 70c0 52.667 -30.167 89 -90.5 109s-170.166 30 -329.499 30h-31l-116 -592h446l-102 -103c-151.333 19.333 -254.333 29 -309 29h-50l-21 -108c-23.333 -121.333 -58.833 -217.5 -106.5 -288.5s-124.167 -141.5 -229.5 -211.5l480 -19l105 -3
c108.667 0 210.334 37.667 305.001 113l-16 -81c-118 -119.333 -229 -179 -333 -179l-46 1zM1137 1604l32 90.001c89.333 75.333 219.333 164.666 390 267.999l-65 -160c-166.667 -83.333 -285.667 -149.333 -357 -198z" />
    <glyph glyph-name="Ecircumflex" unicode="&#xca;" horiz-adv-x="1506" 
d="M210 0l147.999 148.001h17c101.333 0 171.166 21 209.499 63s71.5 134.333 99.5 277l182 914c-137.333 0 -248.333 -36.833 -333 -110.5s-127 -169.834 -127 -288.501v-22l-194 -94c16.667 202 96 351.333 238 448s352.333 145 631 145h588l-89 -283h-63
c5.33301 26 8 49.333 8 70c0 52.667 -30.167 89 -90.5 109s-170.166 30 -329.499 30h-31l-116 -592h446l-102 -103c-151.333 19.333 -254.333 29 -309 29h-50l-21 -108c-23.333 -121.333 -58.833 -217.5 -106.5 -288.5s-124.167 -141.5 -229.5 -211.5l480 -19l105 -3
c108.667 0 210.334 37.667 305.001 113l-16 -81c-118 -119.333 -229 -179 -333 -179l-46 1zM1541 1676l-122.001 -72.0029c-50 55.333 -91.667 128.333 -125 219c-37.333 -45.333 -92.333 -104.666 -165 -177.999c-3.33301 -3.33301 -12.666 -13.666 -27.999 -30.999
l-142 -10c143.333 104.667 246.333 195.334 309 272.001l136 86c30 -104 75.667 -199.333 137 -286z" />
    <glyph glyph-name="Edieresis" unicode="&#xcb;" horiz-adv-x="1506" 
d="M210 0l147.999 148.001h17c101.333 0 171.166 21 209.499 63s71.5 134.333 99.5 277l182 914c-137.333 0 -248.333 -36.833 -333 -110.5s-127 -169.834 -127 -288.501v-22l-194 -94c16.667 202 96 351.333 238 448s352.333 145 631 145h588l-89 -283h-63
c5.33301 26 8 49.333 8 70c0 52.667 -30.167 89 -90.5 109s-170.166 30 -329.499 30h-31l-116 -592h446l-102 -103c-151.333 19.333 -254.333 29 -309 29h-50l-21 -108c-23.333 -121.333 -58.833 -217.5 -106.5 -288.5s-124.167 -141.5 -229.5 -211.5l480 -19l105 -3
c108.667 0 210.334 37.667 305.001 113l-16 -81c-118 -119.333 -229 -179 -333 -179l-46 1zM993.999 1604l-122 152l157 119l119 -161zM1473 1604l-122 155l157 116l119 -159z" />
    <glyph glyph-name="Igrave" unicode="&#xcc;" horiz-adv-x="925" 
d="M12 0l150 148.001h67c76 0 132.167 24.833 168.5 74.5s68.833 147.5 97.5 293.5l163 816h-271l145 148h651l-152 -148h-163l-141 -708c-43.333 -216.667 -155.333 -380.334 -336 -491.001l389 -10l-144 -148zM1050 1683l-126.001 -79.001
c-48 96.667 -117.333 185.334 -208 266.001l119 92c82.667 -82.667 154.334 -175.667 215.001 -279z" />
    <glyph glyph-name="Iacute" unicode="&#xcd;" horiz-adv-x="925" 
d="M12 0l150 148.001h67c76 0 132.167 24.833 168.5 74.5s68.833 147.5 97.5 293.5l163 816h-271l145 148h651l-152 -148h-163l-141 -708c-43.333 -216.667 -155.333 -380.334 -336 -491.001l389 -10l-144 -148zM709 1604l32 90.001
c89.333 75.333 219.333 164.666 390 267.999l-65 -160c-166.667 -83.333 -285.667 -149.333 -357 -198z" />
    <glyph glyph-name="Icircumflex" unicode="&#xce;" horiz-adv-x="925" 
d="M12 0l150 148.001h67c76 0 132.167 24.833 168.5 74.5s68.833 147.5 97.5 293.5l163 816h-271l145 148h651l-152 -148h-163l-141 -708c-43.333 -216.667 -155.333 -380.334 -336 -491.001l389 -10l-144 -148zM1125 1676l-122.001 -72.0029
c-50 55.333 -91.667 128.333 -125 219c-37.333 -45.333 -92.333 -104.666 -165 -177.999c-3.33301 -3.33301 -12.666 -13.666 -27.999 -30.999l-142 -10c143.333 104.667 246.333 195.334 309 272.001l136 86c30 -104 75.667 -199.333 137 -286z" />
    <glyph glyph-name="Idieresis" unicode="&#xcf;" horiz-adv-x="925" 
d="M12 0l150 148.001h67c76 0 132.167 24.833 168.5 74.5s68.833 147.5 97.5 293.5l163 816h-271l145 148h651l-152 -148h-163l-141 -708c-43.333 -216.667 -155.333 -380.334 -336 -491.001l389 -10l-144 -148zM591 1604l-122 152l157 119l119 -161zM1070 1604l-122 155
l157 116l119 -159z" />
    <glyph glyph-name="Eth" unicode="&#xd0;" horiz-adv-x="1990" 
d="M210 0l146.998 148l15 2c4 0.666992 12.667 0.333984 26 -0.999023c6.66699 -0.666992 14 -1 22 -1c72.667 0 127.5 22.167 164.5 66.5s66.833 123.833 89.5 238.5l57 287h-224l14 74h225l117 588c-137.333 0 -248.333 -36.833 -333 -110.5s-127 -169.834 -127 -288.501
v-22l-194 -94c34.667 395.333 319.334 593 854.001 593h289c222.667 0 383.334 -41.5 482.001 -124.5s148 -218.5 148 -406.5c0 -304.667 -105.167 -543.167 -315.5 -715.5s-500.833 -258.5 -871.5 -258.5c-15.333 0 -46.333 1 -93 3zM570.998 126l178 -30.001
c96.667 -16.667 195 -25 295 -25c137.333 0 244.333 18.833 321 56.5s147.667 106.5 213 206.5c115.333 176 173 371.667 173 587c0 332 -183.333 498 -550 498h-125l-120 -605h296l-15 -74h-296l-18 -88c-27.333 -139.333 -65 -244.666 -113 -315.999
s-127.667 -141.333 -239 -210z" />
    <glyph glyph-name="Ntilde" unicode="&#xd1;" horiz-adv-x="2109" 
d="M80 94l143.003 146c68 -110.667 161.333 -166 280 -166c79.333 0 149.333 33.167 210 99.5s102 154.833 124 265.5l189 949c-34 5.33301 -58 8 -72 8c-109.333 0 -200.666 -39.167 -273.999 -117.5s-110 -175.833 -110 -292.5l-194 -95
c13.333 176.667 85.666 319 216.999 427s297.666 162 498.999 162h96c68.667 -176 159 -363.667 271 -563l127 -226c88.667 -155.333 153.667 -281 195 -377l115 578c39.333 199.333 108 353.5 206 462.5s216.333 163.5 355 163.5c49.333 0 97.666 -9.33301 144.999 -28
l-72 -135c-59.333 46.667 -116.333 70 -171 70c-144 0 -240.667 -125.333 -290 -376l-150 -753l-47 -296l-128 -44c-24 75.333 -94 216 -210 422l-245 434c-65.333 116 -119.333 219.667 -162 311l-76 -385c-48.667 -243.333 -129.834 -430.333 -243.501 -561
s-252.167 -196 -415.5 -196c-114.667 0 -218.667 37.667 -312 113zM1439 1618l-70 -14c10.667 70 36.5 126.5 77.5 169.5s89.167 64.5 144.5 64.5c32 0 74.667 -15 128 -45l34 -19c49.333 -27.333 87 -41 113 -41c38 0 72 33 102 99l66 19c-24 -164.667 -96 -247 -216 -247
c-42 0 -87 13 -135 39l-46 26c-44 24 -78.333 36 -103 36c-39.333 0 -71 -29 -95 -87z" />
    <glyph glyph-name="Ograve" unicode="&#xd2;" horiz-adv-x="1604" 
d="M765 -37c-164 0 -293.833 50.999 -389.5 152.999s-143.5 240.333 -143.5 415c0 262 90.167 492 270.5 690s389.833 297 628.5 297c162.667 0 291.5 -50.167 386.5 -150.5s142.5 -236.5 142.5 -408.5c0 -273.333 -87.833 -507.666 -263.5 -702.999
s-386.167 -293 -631.5 -293zM804 30.999c173.333 0 322 91.666 446 274.999s186 403.333 186 660c0 325.333 -113 488 -339 488c-173.333 0 -322.333 -90.667 -447 -272s-187 -398.666 -187 -651.999c0 -332.667 113.667 -499 341 -499zM1365 1683l-126.001 -79.001
c-48 96.667 -117.333 185.334 -208 266.001l119 92c82.667 -82.667 154.334 -175.667 215.001 -279z" />
    <glyph glyph-name="Oacute" unicode="&#xd3;" horiz-adv-x="1604" 
d="M765 -37c-164 0 -293.833 50.999 -389.5 152.999s-143.5 240.333 -143.5 415c0 262 90.167 492 270.5 690s389.833 297 628.5 297c162.667 0 291.5 -50.167 386.5 -150.5s142.5 -236.5 142.5 -408.5c0 -273.333 -87.833 -507.666 -263.5 -702.999
s-386.167 -293 -631.5 -293zM804 30.999c173.333 0 322 91.666 446 274.999s186 403.333 186 660c0 325.333 -113 488 -339 488c-173.333 0 -322.333 -90.667 -447 -272s-187 -398.666 -187 -651.999c0 -332.667 113.667 -499 341 -499zM1011 1604l32 90.001
c89.333 75.333 219.333 164.666 390 267.999l-65 -160c-166.667 -83.333 -285.667 -149.333 -357 -198z" />
    <glyph glyph-name="Ocircumflex" unicode="&#xd4;" horiz-adv-x="1604" 
d="M765 -37c-164 0 -293.833 50.999 -389.5 152.999s-143.5 240.333 -143.5 415c0 262 90.167 492 270.5 690s389.833 297 628.5 297c162.667 0 291.5 -50.167 386.5 -150.5s142.5 -236.5 142.5 -408.5c0 -273.333 -87.833 -507.666 -263.5 -702.999
s-386.167 -293 -631.5 -293zM804 30.999c173.333 0 322 91.666 446 274.999s186 403.333 186 660c0 325.333 -113 488 -339 488c-173.333 0 -322.333 -90.667 -447 -272s-187 -398.666 -187 -651.999c0 -332.667 113.667 -499 341 -499zM1427 1676l-122.001 -72.0029
c-50 55.333 -91.667 128.333 -125 219c-37.333 -45.333 -92.333 -104.666 -165 -177.999c-3.33301 -3.33301 -12.666 -13.666 -27.999 -30.999l-142 -10c143.333 104.667 246.333 195.334 309 272.001l136 86c30 -104 75.667 -199.333 137 -286z" />
    <glyph glyph-name="Otilde" unicode="&#xd5;" horiz-adv-x="1604" 
d="M765 -37c-164 0 -293.833 50.999 -389.5 152.999s-143.5 240.333 -143.5 415c0 262 90.167 492 270.5 690s389.833 297 628.5 297c162.667 0 291.5 -50.167 386.5 -150.5s142.5 -236.5 142.5 -408.5c0 -273.333 -87.833 -507.666 -263.5 -702.999
s-386.167 -293 -631.5 -293zM804 30.999c173.333 0 322 91.666 446 274.999s186 403.333 186 660c0 325.333 -113 488 -339 488c-173.333 0 -322.333 -90.667 -447 -272s-187 -398.666 -187 -651.999c0 -332.667 113.667 -499 341 -499zM936 1618l-70 -14
c10.667 70 36.5 126.5 77.5 169.5s89.167 64.5 144.5 64.5c32 0 74.667 -15 128 -45l34 -19c49.333 -27.333 87 -41 113 -41c38 0 72 33 102 99l66 19c-24 -164.667 -96 -247 -216 -247c-42 0 -87 13 -135 39l-46 26c-44 24 -78.333 36 -103 36c-39.333 0 -71 -29 -95 -87z
" />
    <glyph glyph-name="Odieresis" unicode="&#xd6;" horiz-adv-x="1604" 
d="M765 -37c-164 0 -293.833 50.999 -389.5 152.999s-143.5 240.333 -143.5 415c0 262 90.167 492 270.5 690s389.833 297 628.5 297c162.667 0 291.5 -50.167 386.5 -150.5s142.5 -236.5 142.5 -408.5c0 -273.333 -87.833 -507.666 -263.5 -702.999
s-386.167 -293 -631.5 -293zM804 30.999c173.333 0 322 91.666 446 274.999s186 403.333 186 660c0 325.333 -113 488 -339 488c-173.333 0 -322.333 -90.667 -447 -272s-187 -398.666 -187 -651.999c0 -332.667 113.667 -499 341 -499zM930 1604l-122 152l157 119l119 -161
zM1409 1604l-122 155l157 116l119 -159z" />
    <glyph glyph-name="multiply" unicode="&#xd7;" 
d="M131 134l554 460l-370 462l81 79l374 -470l557 470l71 -91l-556 -465l372 -460l-85 -70l-374 458l-549 -458z" />
    <glyph glyph-name="Oslash" unicode="&#xd8;" horiz-adv-x="1604" 
d="M337 -148l122.001 193c-150 106 -225 268 -225 486c0 264 90.5 494.5 271.5 691.5s392.5 295.5 634.5 295.5c88 0 165.667 -17.667 233 -53l102 164h93l-127 -201c147.333 -104 221 -257.667 221 -461c0 -271.333 -86.5 -506.5 -259.5 -705.5
s-377.167 -298.5 -612.5 -298.5c-104.667 0 -192.334 17 -263.001 51l-102 -162h-88zM538.001 168l770.001 1197c-69.333 60 -152.333 90 -249 90c-83.333 0 -167.833 -35 -253.5 -105s-157.834 -163 -216.501 -279c-84 -166 -126 -364.667 -126 -596
c0 -116.667 25 -219 75 -307zM1361 1302l-771.998 -1192c69.333 -52.667 137.666 -79 204.999 -79c181.333 0 334.166 91.333 458.499 274s186.5 407 186.5 673c0 127.333 -26 235.333 -78 324z" />
    <glyph glyph-name="Ugrave" unicode="&#xd9;" horiz-adv-x="2000" 
d="M1455 -37l61.998 308.001c-147.333 -205.333 -305.666 -308 -474.999 -308c-118 0 -212 41.167 -282 123.5s-105 192.5 -105 330.5c0 86 20.167 226.333 60.5 421s87.166 378 140.499 550c-34 5.33301 -57.667 8 -71 8c-110 0 -201.667 -39.167 -275 -117.5
s-110 -175.833 -110 -292.5l-194 -95c29.333 392.667 300 589 812 589h72c-60.667 -190.667 -112.667 -390 -156 -598s-65 -361.667 -65 -461c0 -108 21.333 -192.5 64 -253.5s102.334 -91.5 179.001 -91.5c80.667 0 160.334 34.667 239.001 104s147 165.666 205 288.999
l201 1011l227 25l-76 -321l-143 -716c-26 -131.333 -39 -216.333 -39 -255c0 -72 44.333 -108 133 -108c31.333 0 71.333 3.33301 120 10l-13 -64zM1575 1683l-126.001 -79.001c-48 96.667 -117.333 185.334 -208 266.001l119 92
c82.667 -82.667 154.334 -175.667 215.001 -279z" />
    <glyph glyph-name="Uacute" unicode="&#xda;" horiz-adv-x="2000" 
d="M1455 -37l61.998 308.001c-147.333 -205.333 -305.666 -308 -474.999 -308c-118 0 -212 41.167 -282 123.5s-105 192.5 -105 330.5c0 86 20.167 226.333 60.5 421s87.166 378 140.499 550c-34 5.33301 -57.667 8 -71 8c-110 0 -201.667 -39.167 -275 -117.5
s-110 -175.833 -110 -292.5l-194 -95c29.333 392.667 300 589 812 589h72c-60.667 -190.667 -112.667 -390 -156 -598s-65 -361.667 -65 -461c0 -108 21.333 -192.5 64 -253.5s102.334 -91.5 179.001 -91.5c80.667 0 160.334 34.667 239.001 104s147 165.666 205 288.999
l201 1011l227 25l-76 -321l-143 -716c-26 -131.333 -39 -216.333 -39 -255c0 -72 44.333 -108 133 -108c31.333 0 71.333 3.33301 120 10l-13 -64zM1282 1604l32 90.001c89.333 75.333 219.333 164.666 390 267.999l-65 -160c-166.667 -83.333 -285.667 -149.333 -357 -198z
" />
    <glyph glyph-name="Ucircumflex" unicode="&#xdb;" horiz-adv-x="2000" 
d="M1455 -37l61.998 308.001c-147.333 -205.333 -305.666 -308 -474.999 -308c-118 0 -212 41.167 -282 123.5s-105 192.5 -105 330.5c0 86 20.167 226.333 60.5 421s87.166 378 140.499 550c-34 5.33301 -57.667 8 -71 8c-110 0 -201.667 -39.167 -275 -117.5
s-110 -175.833 -110 -292.5l-194 -95c29.333 392.667 300 589 812 589h72c-60.667 -190.667 -112.667 -390 -156 -598s-65 -361.667 -65 -461c0 -108 21.333 -192.5 64 -253.5s102.334 -91.5 179.001 -91.5c80.667 0 160.334 34.667 239.001 104s147 165.666 205 288.999
l201 1011l227 25l-76 -321l-143 -716c-26 -131.333 -39 -216.333 -39 -255c0 -72 44.333 -108 133 -108c31.333 0 71.333 3.33301 120 10l-13 -64zM1723 1676l-122.001 -72.0029c-50 55.333 -91.667 128.333 -125 219c-37.333 -45.333 -92.333 -104.666 -165 -177.999
c-3.33301 -3.33301 -12.666 -13.666 -27.999 -30.999l-142 -10c143.333 104.667 246.333 195.334 309 272.001l136 86c30 -104 75.667 -199.333 137 -286z" />
    <glyph glyph-name="Udieresis" unicode="&#xdc;" horiz-adv-x="2000" 
d="M1455 -37l61.998 308.001c-147.333 -205.333 -305.666 -308 -474.999 -308c-118 0 -212 41.167 -282 123.5s-105 192.5 -105 330.5c0 86 20.167 226.333 60.5 421s87.166 378 140.499 550c-34 5.33301 -57.667 8 -71 8c-110 0 -201.667 -39.167 -275 -117.5
s-110 -175.833 -110 -292.5l-194 -95c29.333 392.667 300 589 812 589h72c-60.667 -190.667 -112.667 -390 -156 -598s-65 -361.667 -65 -461c0 -108 21.333 -192.5 64 -253.5s102.334 -91.5 179.001 -91.5c80.667 0 160.334 34.667 239.001 104s147 165.666 205 288.999
l201 1011l227 25l-76 -321l-143 -716c-26 -131.333 -39 -216.333 -39 -255c0 -72 44.333 -108 133 -108c31.333 0 71.333 3.33301 120 10l-13 -64zM1177 1604l-122 152l157 119l119 -161zM1656 1604l-122 155l157 116l119 -159z" />
    <glyph glyph-name="Yacute" unicode="&#xdd;" horiz-adv-x="1676" 
d="M402 -329l136.999 131c79.333 -94 174 -141 284 -141c168.667 0 293.667 163.333 375 490l84 337c-178.667 -288 -325 -432 -439 -432c-90.667 0 -143.667 97.667 -159 293l-59 745c-16 200 -59.667 300 -131 300c-51.333 0 -121 -39.667 -209 -119l16 82
c108 106.667 200.333 160 277 160c81.333 0 142.5 -40.167 183.5 -120.5s68.833 -214.833 83.5 -403.5l41 -549c10 -131.333 36.333 -197 79 -197c33.333 0 84.833 38.333 154.5 115s136.834 168.667 201.501 276l212 842l232 19l-92 -315l-195 -785
c-136 -545.333 -386.333 -818 -751 -818c-114 0 -222.333 30 -325 90zM1100 1604l32 90.001c89.333 75.333 219.333 164.666 390 267.999l-65 -160c-166.667 -83.333 -285.667 -149.333 -357 -198z" />
    <glyph glyph-name="Thorn" unicode="&#xde;" horiz-adv-x="1365" 
d="M12 0l149.001 148h19l43 -1c77.333 0 135.833 28.167 175.5 84.5s75.167 160.5 106.5 312.5l159 776h-270l145 160h654l-155 -160h-165l-20 -99c223.333 0 379.5 -20.667 468.5 -62s133.5 -114 133.5 -218c0 -96.667 -35.333 -189.667 -106 -279s-158.667 -152 -264 -188
c-82.667 -28 -196 -42 -340 -42l37 61c119.333 0 225.166 43 317.499 129s138.5 184.667 138.5 296c0 161.333 -122.667 242 -368 242h-28l-113 -551c-41.333 -204 -151.333 -363.333 -330 -478l384 -8l-137 -148z" />
    <glyph glyph-name="germandbls" unicode="&#xdf;" horiz-adv-x="1235" 
d="M-485 -639l144.003 138.003c68.667 -28 132.667 -42 192 -42c99.333 0 172.5 29.167 219.5 87.5s86.833 169.5 119.5 333.5l223 1120c51.333 259.333 134.666 446.666 249.999 561.999c127.333 128 255.666 192 384.999 192c56.667 0 104.5 -18.667 143.5 -56
s58.5 -83.333 58.5 -138c0 -92.667 -67 -199.334 -201 -320.001l-52 -46c-77.333 -70 -116 -137.333 -116 -202c0 -54.667 42 -131.334 126 -230.001l113 -134c84.667 -100 127 -192.333 127 -277c0 -104 -49.667 -192.333 -149 -265s-220 -109 -362 -109
c-66.667 0 -127.334 15.667 -182.001 47l120 138c67.333 -57.333 143.666 -86 228.999 -86c54.667 0 102.167 18.667 142.5 56s60.5 81 60.5 131c0 66 -44 146.667 -132 242l-76 83c-134.667 146.667 -202 259.667 -202 339c0 78.667 46.333 152 139 220l78 57l29 24
c77.333 64 116 146.333 116 247c0 104 -47.667 156 -143 156c-119.333 0 -203.666 -122.667 -252.999 -368l-220 -1111c-57.333 -287.333 -151 -493.333 -281 -618c-138 -132 -295.333 -198 -472 -198c-53.333 0 -111.333 9 -174 27z" />
    <glyph glyph-name="agrave" unicode="&#xe0;" horiz-adv-x="1369" 
d="M984 543h-18c-75.333 -167.333 -166 -303.833 -272 -409.5s-205.333 -158.5 -298 -158.5c-140.667 0 -211 88 -211 264c0 194 77.333 384 232 570c160 192.667 355.333 289 586 289c95.333 0 195 -4 299 -12l-72 -296l-97 -494c-15.333 -77.333 -23 -127.333 -23 -150
c0 -42 19.667 -63 59 -63c66.667 0 166 73.333 298 220l-18 -93c-146 -156.667 -277 -235 -393 -235c-96.667 0 -145 50.333 -145 151c0 33.333 8 90 24 170zM1064 943c-84 37.333 -167 56 -249 56c-121.333 0 -218.333 -76.667 -291 -230
c-85.333 -181.333 -128 -344.333 -128 -489c0 -104.667 30.667 -157 92 -157c57.333 0 139.833 60.167 247.5 180.5s202.167 257.833 283.5 412.5zM1246 1362l-126.001 -79.001c-48 96.667 -117.333 185.334 -208 266.001l119 92
c82.667 -82.667 154.334 -175.667 215.001 -279z" />
    <glyph glyph-name="aacute" unicode="&#xe1;" horiz-adv-x="1369" 
d="M984 543h-18c-75.333 -167.333 -166 -303.833 -272 -409.5s-205.333 -158.5 -298 -158.5c-140.667 0 -211 88 -211 264c0 194 77.333 384 232 570c160 192.667 355.333 289 586 289c95.333 0 195 -4 299 -12l-72 -296l-97 -494c-15.333 -77.333 -23 -127.333 -23 -150
c0 -42 19.667 -63 59 -63c66.667 0 166 73.333 298 220l-18 -93c-146 -156.667 -277 -235 -393 -235c-96.667 0 -145 50.333 -145 151c0 33.333 8 90 24 170zM1064 943c-84 37.333 -167 56 -249 56c-121.333 0 -218.333 -76.667 -291 -230
c-85.333 -181.333 -128 -344.333 -128 -489c0 -104.667 30.667 -157 92 -157c57.333 0 139.833 60.167 247.5 180.5s202.167 257.833 283.5 412.5zM941 1283l32 90.001c89.333 75.333 219.333 164.666 390 267.999l-65 -160c-166.667 -83.333 -285.667 -149.333 -357 -198z
" />
    <glyph glyph-name="acircumflex" unicode="&#xe2;" horiz-adv-x="1369" 
d="M984 543h-18c-75.333 -167.333 -166 -303.833 -272 -409.5s-205.333 -158.5 -298 -158.5c-140.667 0 -211 88 -211 264c0 194 77.333 384 232 570c160 192.667 355.333 289 586 289c95.333 0 195 -4 299 -12l-72 -296l-97 -494c-15.333 -77.333 -23 -127.333 -23 -150
c0 -42 19.667 -63 59 -63c66.667 0 166 73.333 298 220l-18 -93c-146 -156.667 -277 -235 -393 -235c-96.667 0 -145 50.333 -145 151c0 33.333 8 90 24 170zM1064 943c-84 37.333 -167 56 -249 56c-121.333 0 -218.333 -76.667 -291 -230
c-85.333 -181.333 -128 -344.333 -128 -489c0 -104.667 30.667 -157 92 -157c57.333 0 139.833 60.167 247.5 180.5s202.167 257.833 283.5 412.5zM1333 1355l-122.001 -72.0029c-50 55.333 -91.667 128.333 -125 219c-37.333 -45.333 -92.333 -104.666 -165 -177.999
c-3.33301 -3.33301 -12.666 -13.666 -27.999 -30.999l-142 -10c143.333 104.667 246.333 195.334 309 272.001l136 86c30 -104 75.667 -199.333 137 -286z" />
    <glyph glyph-name="atilde" unicode="&#xe3;" horiz-adv-x="1369" 
d="M984 543h-18c-75.333 -167.333 -166 -303.833 -272 -409.5s-205.333 -158.5 -298 -158.5c-140.667 0 -211 88 -211 264c0 194 77.333 384 232 570c160 192.667 355.333 289 586 289c95.333 0 195 -4 299 -12l-72 -296l-97 -494c-15.333 -77.333 -23 -127.333 -23 -150
c0 -42 19.667 -63 59 -63c66.667 0 166 73.333 298 220l-18 -93c-146 -156.667 -277 -235 -393 -235c-96.667 0 -145 50.333 -145 151c0 33.333 8 90 24 170zM1064 943c-84 37.333 -167 56 -249 56c-121.333 0 -218.333 -76.667 -291 -230
c-85.333 -181.333 -128 -344.333 -128 -489c0 -104.667 30.667 -157 92 -157c57.333 0 139.833 60.167 247.5 180.5s202.167 257.833 283.5 412.5zM817 1297l-70 -14c10.667 70 36.5 126.5 77.5 169.5s89.167 64.5 144.5 64.5c32 0 74.667 -15 128 -45l34 -19
c49.333 -27.333 87 -41 113 -41c38 0 72 33 102 99l66 19c-24 -164.667 -96 -247 -216 -247c-42 0 -87 13 -135 39l-46 26c-44 24 -78.333 36 -103 36c-39.333 0 -71 -29 -95 -87z" />
    <glyph glyph-name="adieresis" unicode="&#xe4;" horiz-adv-x="1369" 
d="M984 543h-18c-75.333 -167.333 -166 -303.833 -272 -409.5s-205.333 -158.5 -298 -158.5c-140.667 0 -211 88 -211 264c0 194 77.333 384 232 570c160 192.667 355.333 289 586 289c95.333 0 195 -4 299 -12l-72 -296l-97 -494c-15.333 -77.333 -23 -127.333 -23 -150
c0 -42 19.667 -63 59 -63c66.667 0 166 73.333 298 220l-18 -93c-146 -156.667 -277 -235 -393 -235c-96.667 0 -145 50.333 -145 151c0 33.333 8 90 24 170zM1064 943c-84 37.333 -167 56 -249 56c-121.333 0 -218.333 -76.667 -291 -230
c-85.333 -181.333 -128 -344.333 -128 -489c0 -104.667 30.667 -157 92 -157c57.333 0 139.833 60.167 247.5 180.5s202.167 257.833 283.5 412.5zM799 1283l-122 152l157 119l119 -161zM1278 1283l-122 155l157 116l119 -159z" />
    <glyph glyph-name="aring" unicode="&#xe5;" horiz-adv-x="1369" 
d="M984 543h-18c-75.333 -167.333 -166 -303.833 -272 -409.5s-205.333 -158.5 -298 -158.5c-140.667 0 -211 88 -211 264c0 194 77.333 384 232 570c160 192.667 355.333 289 586 289c95.333 0 195 -4 299 -12l-72 -296l-97 -494c-15.333 -77.333 -23 -127.333 -23 -150
c0 -42 19.667 -63 59 -63c66.667 0 166 73.333 298 220l-18 -93c-146 -156.667 -277 -235 -393 -235c-96.667 0 -145 50.333 -145 151c0 33.333 8 90 24 170zM1064 943c-84 37.333 -167 56 -249 56c-121.333 0 -218.333 -76.667 -291 -230
c-85.333 -181.333 -128 -344.333 -128 -489c0 -104.667 30.667 -157 92 -157c57.333 0 139.833 60.167 247.5 180.5s202.167 257.833 283.5 412.5zM1099 1277c-44 0 -81.667 15.667 -113 47s-47 69 -47 113c0 44.667 15.667 82.667 47 114s69 47 113 47
c44.667 0 82.667 -15.667 114 -47s47 -69.333 47 -114c0 -44 -15.667 -81.667 -47 -113s-69.333 -47 -114 -47zM1099 1339c27.333 0 50.666 9.49902 69.999 28.499s29 42.167 29 69.5c0 28 -9.66699 51.5 -29 70.5s-42.666 28.5 -69.999 28.5s-50.666 -9.66699 -69.999 -29
s-29 -42.666 -29 -69.999s9.66699 -50.5 29 -69.5s42.666 -28.5 69.999 -28.5z" />
    <glyph glyph-name="ae" unicode="&#xe6;" horiz-adv-x="1875" 
d="M984 543h-17.998c-75.333 -167.333 -166 -303.833 -272 -409.5s-205 -158.5 -297 -158.5c-141.333 0 -212 89.333 -212 268c0 196 77.333 388 232 576c160 194 352 291 576 291c41.333 0 131.666 -7.33301 270.999 -22c3.33301 0 16.333 -0.666992 39 -2l-38 -139
c134.667 108.667 260 163 376 163c60.667 0 109.667 -18.667 147 -56s56 -86 56 -146c0 -132 -62.333 -241.5 -187 -328.5s-288 -134.833 -490 -143.5v-46c0 -196.667 73.333 -295 220 -295c104.667 0 256.667 62.333 456 187l-15 -77c-220 -154 -406.667 -231 -560 -231
c-88.667 0 -162.834 34.167 -222.501 102.5s-89.5 153.166 -89.5 254.499c0 48.667 9.33301 119.334 28 212.001zM1061 950c-84 38 -167.333 57.001 -250 57.001c-120.667 0 -217.334 -77 -290.001 -231c-86 -180.667 -129 -343.334 -129 -488.001
c0 -105.333 31 -158 93 -158c56.667 0 138.834 60.333 246.501 181s202.5 258 284.5 412zM1167 493.001c149.333 12 267.001 50.833 353.001 116.5s129 149.5 129 251.5c0 104 -37.667 156 -113 156c-78.667 0 -155.834 -53.833 -231.501 -161.5
s-121.5 -228.5 -137.5 -362.5z" />
    <glyph glyph-name="ccedilla" unicode="&#xe7;" horiz-adv-x="1119" 
d="M1076 275l-14.999 -78c-137.333 -97.333 -285 -167.333 -443 -210l-52 -77c68.667 -19.333 103 -57 103 -113c0 -47.333 -26.333 -91.166 -79 -131.499s-109.667 -60.5 -171 -60.5c-28 0 -60.333 3.33301 -97 10l77 106c32 -20.667 60.333 -31 85 -31
c58.667 0 88 23.667 88 71c0 51.333 -46.333 79.666 -139 84.999l89 128c-214 22 -321 136 -321 342c0 201.333 72.667 384 218 548s307.666 246 486.999 246c77.333 0 154.333 -17 231 -51l-67 -257h-62l3 15c6.66699 31.333 10 54.333 10 69c0 92 -63 138 -189 138
c-114.667 0 -215 -65.833 -301 -197.5s-129 -285.5 -129 -461.5c0 -186 72.667 -279 218 -279c108.667 0 260.667 63 456 189z" />
    <glyph glyph-name="egrave" unicode="&#xe8;" horiz-adv-x="1109" 
d="M1077 273l-14.999 -76.999c-212 -147.333 -392.667 -221 -542 -221c-94.667 0 -171.5 33.167 -230.5 99.5s-88.5 152.166 -88.5 257.499c0 188 72 364.833 216 530.5s297.667 248.5 461 248.5c59.333 0 107.333 -20 144 -60s55 -92 55 -156
c0 -128 -65.333 -238 -196 -330s-286.667 -138 -468 -138l-1 -45c0 -194.667 71.333 -292 214 -292c123.333 0 273.666 61 450.999 183zM415.001 489.001c149.333 12 266 50.5 350 115.5s126 149.167 126 252.5c0 102 -37 153 -111 153c-80 0 -157.333 -53.167 -232 -159.5
s-119 -226.833 -133 -361.5zM1053 1362l-126.001 -79.001c-48 96.667 -117.333 185.334 -208 266.001l119 92c82.667 -82.667 154.334 -175.667 215.001 -279z" />
    <glyph glyph-name="eacute" unicode="&#xe9;" horiz-adv-x="1109" 
d="M1077 273l-14.999 -76.999c-212 -147.333 -392.667 -221 -542 -221c-94.667 0 -171.5 33.167 -230.5 99.5s-88.5 152.166 -88.5 257.499c0 188 72 364.833 216 530.5s297.667 248.5 461 248.5c59.333 0 107.333 -20 144 -60s55 -92 55 -156
c0 -128 -65.333 -238 -196 -330s-286.667 -138 -468 -138l-1 -45c0 -194.667 71.333 -292 214 -292c123.333 0 273.666 61 450.999 183zM415.001 489.001c149.333 12 266 50.5 350 115.5s126 149.167 126 252.5c0 102 -37 153 -111 153c-80 0 -157.333 -53.167 -232 -159.5
s-119 -226.833 -133 -361.5zM748.001 1283l32 90.001c89.333 75.333 219.333 164.666 390 267.999l-65 -160c-166.667 -83.333 -285.667 -149.333 -357 -198z" />
    <glyph glyph-name="ecircumflex" unicode="&#xea;" horiz-adv-x="1109" 
d="M1077 273l-14.999 -76.999c-212 -147.333 -392.667 -221 -542 -221c-94.667 0 -171.5 33.167 -230.5 99.5s-88.5 152.166 -88.5 257.499c0 188 72 364.833 216 530.5s297.667 248.5 461 248.5c59.333 0 107.333 -20 144 -60s55 -92 55 -156
c0 -128 -65.333 -238 -196 -330s-286.667 -138 -468 -138l-1 -45c0 -194.667 71.333 -292 214 -292c123.333 0 273.666 61 450.999 183zM415.001 489.001c149.333 12 266 50.5 350 115.5s126 149.167 126 252.5c0 102 -37 153 -111 153c-80 0 -157.333 -53.167 -232 -159.5
s-119 -226.833 -133 -361.5zM1140 1355l-122.001 -72.0029c-50 55.333 -91.667 128.333 -125 219c-37.333 -45.333 -92.333 -104.666 -165 -177.999c-3.33301 -3.33301 -12.666 -13.666 -27.999 -30.999l-142 -10c143.333 104.667 246.333 195.334 309 272.001l136 86
c30 -104 75.667 -199.333 137 -286z" />
    <glyph glyph-name="edieresis" unicode="&#xeb;" horiz-adv-x="1109" 
d="M1077 273l-14.999 -76.999c-212 -147.333 -392.667 -221 -542 -221c-94.667 0 -171.5 33.167 -230.5 99.5s-88.5 152.166 -88.5 257.499c0 188 72 364.833 216 530.5s297.667 248.5 461 248.5c59.333 0 107.333 -20 144 -60s55 -92 55 -156
c0 -128 -65.333 -238 -196 -330s-286.667 -138 -468 -138l-1 -45c0 -194.667 71.333 -292 214 -292c123.333 0 273.666 61 450.999 183zM415.001 489.001c149.333 12 266 50.5 350 115.5s126 149.167 126 252.5c0 102 -37 153 -111 153c-80 0 -157.333 -53.167 -232 -159.5
s-119 -226.833 -133 -361.5zM630.001 1283l-122 152l157 119l119 -161zM1109 1283l-122 155l157 116l119 -159z" />
    <glyph glyph-name="igrave" unicode="&#xec;" horiz-adv-x="771" 
d="M886 303l-18 -93.002c-146 -156.667 -277 -235 -393 -235c-96 0 -144 50.333 -144 151c0 34 7.66699 90 23 168l69 348c18.667 98.667 28 164.334 28 197.001c0 56 -21.667 84 -65 84c-30 0 -83.667 -11.667 -161 -35l12 62l489 160l-76 -320l-98 -494
c-15.333 -77.333 -23 -126.666 -23 -147.999c0 -43.333 19.667 -65 59 -65c66 0 165.333 73.333 298 220zM872 1362l-126.001 -79.001c-48 96.667 -117.333 185.334 -208 266.001l119 92c82.667 -82.667 154.334 -175.667 215.001 -279z" />
    <glyph glyph-name="iacute" unicode="&#xed;" horiz-adv-x="771" 
d="M886 303l-18 -93.002c-146 -156.667 -277 -235 -393 -235c-96 0 -144 50.333 -144 151c0 34 7.66699 90 23 168l69 348c18.667 98.667 28 164.334 28 197.001c0 56 -21.667 84 -65 84c-30 0 -83.667 -11.667 -161 -35l12 62l489 160l-76 -320l-98 -494
c-15.333 -77.333 -23 -126.666 -23 -147.999c0 -43.333 19.667 -65 59 -65c66 0 165.333 73.333 298 220zM530 1283l32 90.001c89.333 75.333 219.333 164.666 390 267.999l-65 -160c-166.667 -83.333 -285.667 -149.333 -357 -198z" />
    <glyph glyph-name="icircumflex" unicode="&#xee;" horiz-adv-x="771" 
d="M886 303l-18 -93.002c-146 -156.667 -277 -235 -393 -235c-96 0 -144 50.333 -144 151c0 34 7.66699 90 23 168l69 348c18.667 98.667 28 164.334 28 197.001c0 56 -21.667 84 -65 84c-30 0 -83.667 -11.667 -161 -35l12 62l489 160l-76 -320l-98 -494
c-15.333 -77.333 -23 -126.666 -23 -147.999c0 -43.333 19.667 -65 59 -65c66 0 165.333 73.333 298 220zM909 1355l-122.001 -72.0029c-50 55.333 -91.667 128.333 -125 219c-37.333 -45.333 -92.333 -104.666 -165 -177.999
c-3.33301 -3.33301 -12.666 -13.666 -27.999 -30.999l-142 -10c143.333 104.667 246.333 195.334 309 272.001l136 86c30 -104 75.667 -199.333 137 -286z" />
    <glyph glyph-name="idieresis" unicode="&#xef;" horiz-adv-x="771" 
d="M886 303l-18 -93.002c-146 -156.667 -277 -235 -393 -235c-96 0 -144 50.333 -144 151c0 34 7.66699 90 23 168l69 348c18.667 98.667 28 164.334 28 197.001c0 56 -21.667 84 -65 84c-30 0 -83.667 -11.667 -161 -35l12 62l489 160l-76 -320l-98 -494
c-15.333 -77.333 -23 -126.666 -23 -147.999c0 -43.333 19.667 -65 59 -65c66 0 165.333 73.333 298 220zM387 1283l-122 152l157 119l119 -161zM866 1283l-122 155l157 116l119 -159z" />
    <glyph glyph-name="eth" unicode="&#xf0;" horiz-adv-x="1246" 
d="M978 1070c-4.66699 18.667 -8.33496 32.668 -11.002 42.001c-15.333 58 -37.666 120.667 -66.999 188l-371 -190l18 89l321 166c-90 159.333 -162.333 239 -217 239c-38 0 -87.667 -36.333 -149 -109l-49 37c100.667 146.667 196.334 220 287.001 220
c94 0 195 -98.333 303 -295l357 185l-19 -96l-305 -156c84.667 -198.667 127 -395.667 127 -591c0 -220.667 -68.833 -413.167 -206.5 -577.5s-299.167 -246.5 -484.5 -246.5c-90.667 0 -165.167 32.667 -223.5 98s-87.5 148.666 -87.5 249.999
c0 188 71.5 362.167 214.5 522.5s298.5 240.5 466.5 240.5c36.667 0 68.667 -5.33301 96 -16zM400.999 375.001c0 -217.333 65.999 -326.001 197.999 -326.001c100.667 0 191.834 64.167 273.501 192.5s122.5 271.833 122.5 430.5c0 218 -68.667 327 -206 327
c-102.667 0 -193 -62.667 -271 -188s-117 -270.666 -117 -435.999z" />
    <glyph glyph-name="ntilde" unicode="&#xf1;" horiz-adv-x="1456" 
d="M269 -12l73.998 307.999l98 494c15.333 76.667 23 126.667 23 150c0 41.333 -19.667 62 -59 62c-65.333 0 -164.666 -73 -297.999 -219l18 92c145.333 156.667 276.333 235 393 235c96 0 144 -50 144 -150c0 -34 -7.66699 -90.667 -23 -170l-49 -247h15
c83.333 170.667 177.5 307.834 282.5 411.501s202.833 155.5 293.5 155.5c109.333 0 164 -60.667 164 -182c0 -39.333 -5.66699 -87.333 -17 -144l-97 -488c-15.333 -77.333 -23 -127.333 -23 -150c0 -42 19.667 -63 59 -63c66.667 0 166.334 73.333 299.001 220l-19 -93
c-145.333 -156.667 -276.333 -235 -393 -235c-96 0 -144 50.333 -144 151c0 33.333 8 90 24 170l97 490c8 38 12 70 12 96c0 54 -20 81 -60 81c-127.333 0 -304 -202 -530 -606l-73 -357zM787.998 1297l-70 -14c10.667 70 36.5 126.5 77.5 169.5s89.167 64.5 144.5 64.5
c32 0 74.667 -15 128 -45l34 -19c49.333 -27.333 87 -41 113 -41c38 0 72 33 102 99l66 19c-24 -164.667 -96 -247 -216 -247c-42 0 -87 13 -135 39l-46 26c-44 24 -78.333 36 -103 36c-39.333 0 -71 -29 -95 -87z" />
    <glyph glyph-name="ograve" unicode="&#xf2;" horiz-adv-x="1193" 
d="M507 -25c-87.333 0 -160.166 34.166 -218.499 102.499s-87.5 153.5 -87.5 255.5c0 192 72.667 369.5 218 532.5s303.666 244.5 474.999 244.5c92.667 0 169 -33.333 229 -100s90 -151.667 90 -255c0 -199.333 -72.667 -379.166 -218 -539.499s-308 -240.5 -488 -240.5z
M621 61.999c98.667 0 185.499 63.5 260.499 190.5s112.5 274.5 112.5 442.5c0 220.667 -67.333 331 -202 331c-95.333 0 -181.166 -65.5 -257.499 -196.5s-114.5 -278.5 -114.5 -442.5c0 -216.667 67 -325 201 -325zM1121 1362l-126.001 -79.001
c-48 96.667 -117.333 185.334 -208 266.001l119 92c82.667 -82.667 154.334 -175.667 215.001 -279z" />
    <glyph glyph-name="oacute" unicode="&#xf3;" horiz-adv-x="1193" 
d="M507 -25c-87.333 0 -160.166 34.166 -218.499 102.499s-87.5 153.5 -87.5 255.5c0 192 72.667 369.5 218 532.5s303.666 244.5 474.999 244.5c92.667 0 169 -33.333 229 -100s90 -151.667 90 -255c0 -199.333 -72.667 -379.166 -218 -539.499s-308 -240.5 -488 -240.5z
M621 61.999c98.667 0 185.499 63.5 260.499 190.5s112.5 274.5 112.5 442.5c0 220.667 -67.333 331 -202 331c-95.333 0 -181.166 -65.5 -257.499 -196.5s-114.5 -278.5 -114.5 -442.5c0 -216.667 67 -325 201 -325zM778.999 1283l32 90.001
c89.333 75.333 219.333 164.666 390 267.999l-65 -160c-166.667 -83.333 -285.667 -149.333 -357 -198z" />
    <glyph glyph-name="ocircumflex" unicode="&#xf4;" horiz-adv-x="1193" 
d="M507 -25c-87.333 0 -160.166 34.166 -218.499 102.499s-87.5 153.5 -87.5 255.5c0 192 72.667 369.5 218 532.5s303.666 244.5 474.999 244.5c92.667 0 169 -33.333 229 -100s90 -151.667 90 -255c0 -199.333 -72.667 -379.166 -218 -539.499s-308 -240.5 -488 -240.5z
M621 61.999c98.667 0 185.499 63.5 260.499 190.5s112.5 274.5 112.5 442.5c0 220.667 -67.333 331 -202 331c-95.333 0 -181.166 -65.5 -257.499 -196.5s-114.5 -278.5 -114.5 -442.5c0 -216.667 67 -325 201 -325zM1195 1355l-122.001 -72.0029
c-50 55.333 -91.667 128.333 -125 219c-37.333 -45.333 -92.333 -104.666 -165 -177.999c-3.33301 -3.33301 -12.666 -13.666 -27.999 -30.999l-142 -10c143.333 104.667 246.333 195.334 309 272.001l136 86c30 -104 75.667 -199.333 137 -286z" />
    <glyph glyph-name="otilde" unicode="&#xf5;" horiz-adv-x="1193" 
d="M507 -25c-87.333 0 -160.166 34.166 -218.499 102.499s-87.5 153.5 -87.5 255.5c0 192 72.667 369.5 218 532.5s303.666 244.5 474.999 244.5c92.667 0 169 -33.333 229 -100s90 -151.667 90 -255c0 -199.333 -72.667 -379.166 -218 -539.499s-308 -240.5 -488 -240.5z
M621 61.999c98.667 0 185.499 63.5 260.499 190.5s112.5 274.5 112.5 442.5c0 220.667 -67.333 331 -202 331c-95.333 0 -181.166 -65.5 -257.499 -196.5s-114.5 -278.5 -114.5 -442.5c0 -216.667 67 -325 201 -325zM678.999 1297l-70 -14c10.667 70 36.5 126.5 77.5 169.5
s89.167 64.5 144.5 64.5c32 0 74.667 -15 128 -45l34 -19c49.333 -27.333 87 -41 113 -41c38 0 72 33 102 99l66 19c-24 -164.667 -96 -247 -216 -247c-42 0 -87 13 -135 39l-46 26c-44 24 -78.333 36 -103 36c-39.333 0 -71 -29 -95 -87z" />
    <glyph glyph-name="odieresis" unicode="&#xf6;" horiz-adv-x="1193" 
d="M507 -25c-87.333 0 -160.166 34.166 -218.499 102.499s-87.5 153.5 -87.5 255.5c0 192 72.667 369.5 218 532.5s303.666 244.5 474.999 244.5c92.667 0 169 -33.333 229 -100s90 -151.667 90 -255c0 -199.333 -72.667 -379.166 -218 -539.499s-308 -240.5 -488 -240.5z
M621 61.999c98.667 0 185.499 63.5 260.499 190.5s112.5 274.5 112.5 442.5c0 220.667 -67.333 331 -202 331c-95.333 0 -181.166 -65.5 -257.499 -196.5s-114.5 -278.5 -114.5 -442.5c0 -216.667 67 -325 201 -325zM672.999 1283l-122 152l157 119l119 -161zM1152 1283
l-122 155l157 116l119 -159z" />
    <glyph glyph-name="divide" unicode="&#xf7;" 
d="M574 93l37 185h185l-37 -185h-185zM212 537l22 111h1086l-22 -111h-1086zM736 907l37 185h185l-37 -185h-185z" />
    <glyph glyph-name="oslash" unicode="&#xf8;" horiz-adv-x="1193" 
d="M247 -148h-79.999l147 199c-74 79.333 -111 172 -111 278c0 192 72.333 370.333 217 535s301 247 469 247c59.333 0 114.666 -14.333 165.999 -43l119 166h75l-144 -199c72.667 -88.667 109 -181 109 -277c0 -200 -72.333 -380.5 -217 -541.5s-307 -241.5 -487 -241.5
c-43.333 0 -92 13 -146 39zM429.001 210l528.001 726.999c-33.333 59.333 -85.333 89 -156 89c-100.667 0 -191.334 -67.667 -272.001 -203s-121 -287.333 -121 -456c0 -39.333 7 -91.666 21 -156.999zM986.002 870.999l-528.001 -728.001
c35.333 -59.333 86.333 -89 153 -89c100.667 0 192.334 66.333 275.001 199s124 280.334 124 443.001c0 48.667 -8 107 -24 175z" />
    <glyph glyph-name="ugrave" unicode="&#xf9;" horiz-adv-x="1428" 
d="M1058 543h-17.001c-189.333 -378.667 -374 -568 -554 -568c-106.667 0 -160 63 -160 189c0 36 5.33301 81 16 135l97 491c15.333 76.667 23 126.667 23 150c0 41.333 -19.667 62 -59 62c-65.333 0 -164.666 -73 -297.999 -219l18 92c145.333 156.667 276.333 235 393 235
c96.667 0 145 -50 145 -150c0 -33.333 -8 -90 -24 -170l-98 -492c-8.66699 -44 -13 -75.333 -13 -94c0 -54 19.667 -81 59 -81c50 0 125.833 60.5 227.5 181.5s195.167 261.833 280.5 422.5l72 359l212 12l-74 -308l-98 -494c-15.333 -76.667 -23 -126.667 -23 -150
c0 -42 19.667 -63 59 -63c66 0 165.333 73.333 298 220l-18 -93c-146 -156.667 -277 -235 -393 -235c-96.667 0 -145 50.333 -145 151c0 34 8 90.667 24 170zM1157 1362l-126.001 -79.001c-48 96.667 -117.333 185.334 -208 266.001l119 92
c82.667 -82.667 154.334 -175.667 215.001 -279z" />
    <glyph glyph-name="uacute" unicode="&#xfa;" horiz-adv-x="1428" 
d="M1058 543h-17.001c-189.333 -378.667 -374 -568 -554 -568c-106.667 0 -160 63 -160 189c0 36 5.33301 81 16 135l97 491c15.333 76.667 23 126.667 23 150c0 41.333 -19.667 62 -59 62c-65.333 0 -164.666 -73 -297.999 -219l18 92c145.333 156.667 276.333 235 393 235
c96.667 0 145 -50 145 -150c0 -33.333 -8 -90 -24 -170l-98 -492c-8.66699 -44 -13 -75.333 -13 -94c0 -54 19.667 -81 59 -81c50 0 125.833 60.5 227.5 181.5s195.167 261.833 280.5 422.5l72 359l212 12l-74 -308l-98 -494c-15.333 -76.667 -23 -126.667 -23 -150
c0 -42 19.667 -63 59 -63c66 0 165.333 73.333 298 220l-18 -93c-146 -156.667 -277 -235 -393 -235c-96.667 0 -145 50.333 -145 151c0 34 8 90.667 24 170zM851.999 1283l32 90.001c89.333 75.333 219.333 164.666 390 267.999l-65 -160
c-166.667 -83.333 -285.667 -149.333 -357 -198z" />
    <glyph glyph-name="ucircumflex" unicode="&#xfb;" horiz-adv-x="1428" 
d="M1058 543h-17.001c-189.333 -378.667 -374 -568 -554 -568c-106.667 0 -160 63 -160 189c0 36 5.33301 81 16 135l97 491c15.333 76.667 23 126.667 23 150c0 41.333 -19.667 62 -59 62c-65.333 0 -164.666 -73 -297.999 -219l18 92c145.333 156.667 276.333 235 393 235
c96.667 0 145 -50 145 -150c0 -33.333 -8 -90 -24 -170l-98 -492c-8.66699 -44 -13 -75.333 -13 -94c0 -54 19.667 -81 59 -81c50 0 125.833 60.5 227.5 181.5s195.167 261.833 280.5 422.5l72 359l212 12l-74 -308l-98 -494c-15.333 -76.667 -23 -126.667 -23 -150
c0 -42 19.667 -63 59 -63c66 0 165.333 73.333 298 220l-18 -93c-146 -156.667 -277 -235 -393 -235c-96.667 0 -145 50.333 -145 151c0 34 8 90.667 24 170zM1244 1355l-122.001 -72.0029c-50 55.333 -91.667 128.333 -125 219
c-37.333 -45.333 -92.333 -104.666 -165 -177.999c-3.33301 -3.33301 -12.666 -13.666 -27.999 -30.999l-142 -10c143.333 104.667 246.333 195.334 309 272.001l136 86c30 -104 75.667 -199.333 137 -286z" />
    <glyph glyph-name="udieresis" unicode="&#xfc;" horiz-adv-x="1428" 
d="M1058 543h-17.001c-189.333 -378.667 -374 -568 -554 -568c-106.667 0 -160 63 -160 189c0 36 5.33301 81 16 135l97 491c15.333 76.667 23 126.667 23 150c0 41.333 -19.667 62 -59 62c-65.333 0 -164.666 -73 -297.999 -219l18 92c145.333 156.667 276.333 235 393 235
c96.667 0 145 -50 145 -150c0 -33.333 -8 -90 -24 -170l-98 -492c-8.66699 -44 -13 -75.333 -13 -94c0 -54 19.667 -81 59 -81c50 0 125.833 60.5 227.5 181.5s195.167 261.833 280.5 422.5l72 359l212 12l-74 -308l-98 -494c-15.333 -76.667 -23 -126.667 -23 -150
c0 -42 19.667 -63 59 -63c66 0 165.333 73.333 298 220l-18 -93c-146 -156.667 -277 -235 -393 -235c-96.667 0 -145 50.333 -145 151c0 34 8 90.667 24 170zM733.999 1283l-122 152l157 119l119 -161zM1213 1283l-122 155l157 116l119 -159z" />
    <glyph glyph-name="yacute" unicode="&#xfd;" horiz-adv-x="1420" 
d="M246 -637l138.002 140.002c66 -38.667 136.667 -58 212 -58c92.667 0 164.834 33 216.501 99s98.5 186 140.5 360l155 639h-13c-78 -158.667 -157.333 -288.834 -238 -390.501s-144.334 -152.5 -191.001 -152.5c-48.667 0 -85.167 26.167 -109.5 78.5
s-45.5 149.5 -63.5 291.5l-48 389c-18 144 -48.333 216 -91 216c-41.333 0 -108.333 -58.333 -201 -175l20 102c104.667 138.667 203.667 208 297 208c53.333 0 91.333 -24 114 -72s44 -149 64 -303l42 -334c15.333 -119.333 40.666 -179 75.999 -179
c41.333 0 99.666 57.667 174.999 173l223 371l76 320l213 12l-89 -312l-175 -711c-59.333 -240.667 -153.833 -424.334 -283.5 -551.001s-288.5 -190 -476.5 -190c-71.333 0 -132.333 9.66699 -183 29zM856.002 1283l32 90.001c89.333 75.333 219.333 164.666 390 267.999
l-65 -160c-166.667 -83.333 -285.667 -149.333 -357 -198z" />
    <glyph glyph-name="thorn" unicode="&#xfe;" horiz-adv-x="1360" 
d="M-425 -648l135 142.998c67.333 -33.333 138 -50 212 -50c169.333 0 282.333 140.667 339 422l235 1182c18 98.667 27 164.334 27 197.001c0 56 -21.333 84 -64 84c-30.667 0 -84.667 -11.667 -162 -35l12 62l489 160l-76 -323l-130 -651h17
c76 168 166.833 304.5 272.5 409.5s204.834 157.5 297.501 157.5c142 0 213 -88 213 -264c0 -206 -81.167 -401 -243.5 -585s-334.833 -276 -517.5 -276c-18.667 0 -56.334 3.66699 -113.001 11c-7.33301 0.666992 -18.666 2 -33.999 4
c-52.667 -215.333 -143.834 -380.166 -273.501 -494.499s-290.5 -171.5 -482.5 -171.5c-48 0 -99 6 -153 18zM512 140.998c83.333 -36.667 166.666 -55.001 249.999 -55.001c120.667 0 217.334 76.667 290.001 230c86 181.333 129 344.333 129 489
c0 104.667 -31 157 -93 157c-56.667 0 -138.667 -60.167 -246 -180.5s-202.333 -258.166 -285 -413.499z" />
    <glyph glyph-name="ydieresis" unicode="&#xff;" horiz-adv-x="1420" 
d="M246 -637l138.002 140.002c66 -38.667 136.667 -58 212 -58c92.667 0 164.834 33 216.501 99s98.5 186 140.5 360l155 639h-13c-78 -158.667 -157.333 -288.834 -238 -390.501s-144.334 -152.5 -191.001 -152.5c-48.667 0 -85.167 26.167 -109.5 78.5
s-45.5 149.5 -63.5 291.5l-48 389c-18 144 -48.333 216 -91 216c-41.333 0 -108.333 -58.333 -201 -175l20 102c104.667 138.667 203.667 208 297 208c53.333 0 91.333 -24 114 -72s44 -149 64 -303l42 -334c15.333 -119.333 40.666 -179 75.999 -179
c41.333 0 99.666 57.667 174.999 173l223 371l76 320l213 12l-89 -312l-175 -711c-59.333 -240.667 -153.833 -424.334 -283.5 -551.001s-288.5 -190 -476.5 -190c-71.333 0 -132.333 9.66699 -183 29zM751.002 1283l-122 152l157 119l119 -161zM1230 1283l-122 155l157 116
l119 -159z" />
    <glyph glyph-name="dotlessi" unicode="&#x131;" horiz-adv-x="771" 
d="M886 303l-18 -93.002c-146 -156.667 -277 -235 -393 -235c-96 0 -144 50.333 -144 151c0 34 7.66699 90 23 168l69 348c18.667 98.667 28 164.334 28 197.001c0 56 -21.667 84 -65 84c-30 0 -83.667 -11.667 -161 -35l12 62l489 160l-76 -320l-98 -494
c-15.333 -77.333 -23 -126.666 -23 -147.999c0 -43.333 19.667 -65 59 -65c66 0 165.333 73.333 298 220z" />
    <glyph glyph-name="OE" unicode="&#x152;" horiz-adv-x="2051" 
d="M1134 0l20 97c-111.333 -89.333 -242 -134 -392 -134c-164.667 0 -294.167 50 -388.5 150s-141.5 237.333 -141.5 412c0 261.333 88.5 492 265.5 692s381.167 300 612.5 300c122 0 223 -39.333 303 -118l16 81h784l-89 -283h-63c6 26.667 9 50 9 70
c0 52.667 -30.333 89 -91 109s-170.667 30 -330 30h-31l-115 -592h445l-102 -103c-151.333 19.333 -254.333 29 -309 29h-50l-82 -437c-9.33301 -47.333 -14 -76.333 -14 -87c0 -70 105 -105 315 -105c111.333 0 215.333 37.333 312 112l-16 -80
c-114.667 -116 -225 -174 -331 -174c-18 0 -37.333 0.666992 -58 2zM1234 501l101.001 503.002c11.333 58 17 112.667 17 164c0 85.333 -26.333 154.666 -79 207.999s-121 80 -205 80c-152.667 0 -292.667 -94.5 -420 -283.5s-191 -396.833 -191 -623.5
c0 -164.667 31.333 -293.334 94 -386.001s150 -139 262 -139c215.333 0 355.666 159 420.999 477z" />
    <glyph glyph-name="oe" unicode="&#x153;" horiz-adv-x="1875" 
d="M981 201c-159.333 -150.667 -315 -225.999 -467 -225.999c-90 0 -164.667 33.667 -224 101s-89 151.666 -89 252.999c0 195.333 73 374.333 219 537s306.667 244 482 244c134 0 231 -78.333 291 -235c154 156.667 303.667 235 449 235c59.333 0 107.833 -19 145.5 -57
s56.5 -87.667 56.5 -149c0 -132 -62.333 -241.5 -187 -328.5s-288 -134.833 -490 -143.5l-1 -46c0 -196.667 73.333 -295 220 -295c106.667 0 259 62.333 457 187l-15 -76c-216 -151.333 -400.667 -227 -554 -227c-148 0 -245.667 75.333 -293 226zM599 49.001
c104.667 0 199.5 66.332 284.5 198.999s127.5 281.334 127.5 446.001c0 100 -18.167 180 -54.5 240s-84.833 90 -145.5 90c-104 0 -197.5 -66.333 -280.5 -199s-124.5 -281.667 -124.5 -447c0 -219.333 64.333 -329 193 -329zM1172 493
c148.667 12 266.167 50.833 352.5 116.5s129.5 149.5 129.5 251.5c0 104 -37.667 156 -113 156c-79.333 0 -157 -54 -233 -162s-121.333 -228.667 -136 -362z" />
    <glyph glyph-name="Scaron" unicode="&#x160;" horiz-adv-x="1189" 
d="M116 56l138.999 142c122.667 -99.333 249.667 -149 381 -149c91.333 0 166 25.833 224 77.5s87 118.167 87 199.5c0 80 -54.667 168.333 -164 265l-141 125c-104.667 92 -169.5 156.667 -194.5 194s-37.5 87.333 -37.5 150c0 124.667 52.667 232.167 158 322.5
s231 135.5 377 135.5c92.667 0 201.334 -27.667 326.001 -83l-50 -251h-63c1.33301 20.667 2 35 2 43c0 63.333 -25.333 114.333 -76 153s-117.667 58 -201 58c-86 0 -158.333 -25.5 -217 -76.5s-88 -114.167 -88 -189.5c0 -50.667 14.833 -97 44.5 -139
s91.5 -103 185.5 -183l118 -102c131.333 -112.667 197 -218 197 -316c0 -128.667 -61.667 -239 -185 -331s-270.333 -138 -441 -138c-130.667 0 -257.667 31 -381 93zM817.999 1890l122 72.002c50 -55.333 92 -128.333 126 -219c37.333 46 92.333 105.333 165 178
c2.66699 3.33301 12 13.666 28 30.999l141 10c-143.333 -105.333 -246.333 -196 -309 -272l-136 -86c-29.333 103.333 -75 198.666 -137 285.999z" />
    <glyph glyph-name="scaron" unicode="&#x161;" horiz-adv-x="924" 
d="M69 34l131.001 135.002c86.667 -63.333 175 -95 265 -95c55.333 0 102 14.5 140 43.5s57 64.833 57 107.5c0 47.333 -37.667 112 -113 194l-91 100c-88.667 97.333 -133 178.666 -133 243.999c0 90.667 43 171.167 129 241.5s184.333 105.5 295 105.5
c60.667 0 128.667 -12.667 204 -38l-44 -221h-63l3 17c1.33301 6 2 13 2 21c0 90 -58 135 -174 135c-130 0 -195 -52 -195 -156c0 -52.667 38.667 -122.667 116 -210l82 -91c89.333 -100.667 134 -183.334 134 -248.001c0 -89.333 -47.333 -169 -142 -239
s-202.334 -105 -323.001 -105c-84.667 0 -178 19.667 -280 59zM559.001 1569l122 72.002c50 -55.333 92 -128.333 126 -219c37.333 46 92.333 105.333 165 178c2.66699 3.33301 12 13.666 28 30.999l141 10c-143.333 -105.333 -246.333 -196 -309 -272l-136 -86
c-29.333 103.333 -75 198.666 -137 285.999z" />
    <glyph glyph-name="Ydieresis" unicode="&#x178;" horiz-adv-x="1676" 
d="M402 -329l136.999 131c79.333 -94 174 -141 284 -141c168.667 0 293.667 163.333 375 490l84 337c-178.667 -288 -325 -432 -439 -432c-90.667 0 -143.667 97.667 -159 293l-59 745c-16 200 -59.667 300 -131 300c-51.333 0 -121 -39.667 -209 -119l16 82
c108 106.667 200.333 160 277 160c81.333 0 142.5 -40.167 183.5 -120.5s68.833 -214.833 83.5 -403.5l41 -549c10 -131.333 36.333 -197 79 -197c33.333 0 84.833 38.333 154.5 115s136.834 168.667 201.501 276l212 842l232 19l-92 -315l-195 -785
c-136 -545.333 -386.333 -818 -751 -818c-114 0 -222.333 30 -325 90zM992.999 1604l-122 152l157 119l119 -161zM1472 1604l-122 155l157 116l119 -159z" />
    <glyph glyph-name="florin" unicode="&#x192;" horiz-adv-x="942" 
d="M220 -321l71 296l106 531h-247l12 62h247l5 25c30 147.333 106.5 270.333 229.5 369s261.167 148 414.5 148c52 0 97.667 -7 137 -21l-134 -148c-48 47.333 -103.667 71 -167 71c-132.667 0 -219 -100.333 -259 -301l-29 -143h259l-12 -62h-259l-159 -802z" />
    <glyph glyph-name="circumflex" unicode="&#x2c6;" horiz-adv-x="1197" 
d="M1209 1355l-122.001 -72.0029c-50 55.333 -91.667 128.333 -125 219c-37.333 -45.333 -92.333 -104.666 -165 -177.999c-3.33301 -3.33301 -12.666 -13.666 -27.999 -30.999l-142 -10c143.333 104.667 246.333 195.334 309 272.001l136 86
c30 -104 75.667 -199.333 137 -286z" />
    <glyph glyph-name="caron" unicode="&#x2c7;" horiz-adv-x="1197" 
d="M627 1569l122 72.002c50 -55.333 92 -128.333 126 -219c37.333 46 92.333 105.333 165 178c2.66699 3.33301 12 13.666 28 30.999l141 10c-143.333 -105.333 -246.333 -196 -309 -272l-136 -86c-29.333 103.333 -75 198.666 -137 285.999z" />
    <glyph glyph-name="macron" unicode="&#x2c9;" horiz-adv-x="1197" 
d="M603 1283l77 123h569l-73 -123h-573z" />
    <glyph glyph-name="breve" unicode="&#x2d8;" horiz-adv-x="1197" 
d="M716 1547l170 94c-16 -52.667 -24 -99.667 -24 -141c0 -98 35.667 -147 107 -147c92.667 0 146.667 76.333 162 229l110 59c-19.333 -113.333 -61 -201.333 -125 -264s-144 -94 -240 -94c-110 0 -165 62.667 -165 188c0 20 1.66699 45.333 5 76z" />
    <glyph glyph-name="dotaccent" unicode="&#x2d9;" horiz-adv-x="1197" 
d="M939 1283l-127 146l162 125l121 -161z" />
    <glyph glyph-name="ring" unicode="&#x2da;" horiz-adv-x="1147" 
d="M890 1283c-44 0 -81.667 15.667 -113 47s-47 69 -47 113c0 44.667 15.667 82.667 47 114s69 47 113 47c44.667 0 82.667 -15.667 114 -47s47 -69.333 47 -114c0 -44 -15.667 -81.667 -47 -113s-69.333 -47 -114 -47zM890 1345c27.333 0 50.666 9.49902 69.999 28.499
s29 42.167 29 69.5c0 28 -9.66699 51.5 -29 70.5s-42.666 28.5 -69.999 28.5s-50.666 -9.66699 -69.999 -29s-29 -42.666 -29 -69.999s9.66699 -50.5 29 -69.5s42.666 -28.5 69.999 -28.5z" />
    <glyph glyph-name="ogonek" unicode="&#x2db;" horiz-adv-x="1197" 
d="M606 0c-110.667 -78 -166 -151.667 -166 -221c0 -52.667 33.667 -79 101 -79c23.333 0 50.333 4.33301 81 13l-76 -104c-24 -2.66699 -44.667 -4 -62 -4c-116.667 0 -175 39.333 -175 118c0 82 72.333 174.333 217 277h80z" />
    <glyph glyph-name="tilde" unicode="&#x2dc;" horiz-adv-x="1197" 
d="M663 1297l-70 -14c10.667 70 36.5 126.5 77.5 169.5s89.167 64.5 144.5 64.5c32 0 74.667 -15 128 -45l34 -19c49.333 -27.333 87 -41 113 -41c38 0 72 33 102 99l66 19c-24 -164.667 -96 -247 -216 -247c-42 0 -87 13 -135 39l-46 26c-44 24 -78.333 36 -103 36
c-39.333 0 -71 -29 -95 -87z" />
    <glyph glyph-name="hungarumlaut" unicode="&#x2dd;" horiz-adv-x="1197" 
d="M720 1283l46 122l226 236l-70 -196zM1003 1283l47 122l225 236l-70 -196z" />
    <glyph glyph-name="pi" unicode="&#x3c0;" horiz-adv-x="1703" 
d="M343 -12l74 308l130 654h-45c-124.667 0 -237 -40.333 -337 -121l35 177c80 53.333 178.667 80 296 80h1250l-27 -136h-308l-110 -552c-29.333 -146.667 -44 -230 -44 -250c0 -43.333 20.667 -65 62 -65c82.667 0 185 72 307 216l-18 -90
c-138 -156 -273.333 -234 -406 -234c-97.333 0 -146 53.667 -146 161c0 18 17.333 113.667 52 287l105 527h-469l-191 -950z" />
    <glyph glyph-name="endash" unicode="&#x2013;" horiz-adv-x="1024" 
d="M213 543l25 123h814l-25 -123h-814z" />
    <glyph glyph-name="emdash" unicode="&#x2014;" horiz-adv-x="2048" 
d="M207 543l20 99h1850l-20 -99h-1850z" />
    <glyph glyph-name="quoteleft" unicode="&#x2018;" horiz-adv-x="518" 
d="M670 1332l-158 -123l-121 162c19.333 254 140 381 362 381l-42 -62c-97.333 -18.667 -152 -87.667 -164 -207z" />
    <glyph glyph-name="quoteright" unicode="&#x2019;" horiz-adv-x="518" 
d="M425 1632l158 120.001l121 -158c-20 -256.667 -141 -385 -363 -385l42 62c97.333 19.333 152.333 89.666 165 210.999z" />
    <glyph glyph-name="quotesinglbase" unicode="&#x201a;" horiz-adv-x="580" 
d="M144 177l198.998 144l147 -196c-7.33301 -134.667 -49.166 -238.5 -125.499 -311.5s-181.166 -109.5 -314.499 -109.5l56 62c104 10 166.333 79.667 187 209z" />
    <glyph glyph-name="quotedblleft" unicode="&#x201c;" horiz-adv-x="950" 
d="M1102 1332l-159 -123l-120 162c19.333 254 140 381 362 381l-42 -62c-96.667 -18.667 -151.667 -87.667 -165 -207zM670 1332l-158 -123l-121 162c19.333 254 140.333 381 363 381l-43 -62c-97.333 -18.667 -152 -87.667 -164 -207z" />
    <glyph glyph-name="quotedblright" unicode="&#x201d;" horiz-adv-x="950" 
d="M426 1632l158 120.001l121 -158c-20 -256.667 -141 -385 -363 -385l42 62c97.333 19.333 152.333 89.666 165 210.999zM857 1632l159.001 120.001l120 -158c-18.667 -256.667 -139.334 -385 -362.001 -385l42 62c96.667 19.333 151.667 89.666 165 210.999z" />
    <glyph glyph-name="quotedblbase" unicode="&#x201e;" horiz-adv-x="950" 
d="M126 127l158 120.001l121 -158c-20 -256.667 -141 -385 -363 -385l42 62c97.333 19.333 152.333 89.666 165 210.999zM557 127.001l159.001 120.001l120 -158c-18.667 -256.667 -139.334 -385 -362.001 -385l42 62c96.667 19.333 151.667 89.666 165 210.999z" />
    <glyph glyph-name="dagger" unicode="&#x2020;" 
d="M482 -321l306 1185l-443 -41l68 149l387 -45l43 553l206 37l-186 -590l444 45l-65 -149l-392 41l-161 -1160z" />
    <glyph glyph-name="daggerdbl" unicode="&#x2021;" 
d="M485 -321l183 578l-444 -43l70 148l386 -44l107 538l-444 -42l70 148l386 -45l46 563l207 37l-191 -600l445 45l-71 -148l-386 42l-107 -538l445 44l-71 -148l-387 43l-37 -553z" />
    <glyph glyph-name="bullet" unicode="&#x2022;" horiz-adv-x="1246" 
d="M734 438c-41.333 0 -76.333 14.333 -105 43s-43 63.667 -43 105c0 40.667 14.5 75.5 43.5 104.5s63.833 43.5 104.5 43.5s75.5 -14.5 104.5 -43.5s43.5 -63.833 43.5 -104.5c0 -41.333 -14.333 -76.333 -43 -105s-63.667 -43 -105 -43z" />
    <glyph glyph-name="ellipsis" unicode="&#x2026;" horiz-adv-x="2048" 
d="M247 0l39 197h198l-40 -197h-197zM926 0l39 197h197l-39 -197h-197zM1604 0l39 197h198l-40 -197h-197z" />
    <glyph glyph-name="perthousand" unicode="&#x2030;" horiz-adv-x="2182" 
d="M535 740c-75.333 0 -135.833 23.999 -181.5 71.999s-68.5 111.667 -68.5 191c0 132 37.667 244.5 113 337.5s166.333 139.5 273 139.5c78 0 140.167 -23.667 186.5 -71s69.5 -111.333 69.5 -192c0 -133.333 -38 -246.166 -114 -338.499s-168.667 -138.5 -278 -138.5z
M432 993.999c0 -128 40.333 -192 121 -192c60.667 0 115.667 43.333 165 130s74 184 74 292c0 130.667 -40.333 196 -121 196c-62 0 -117.333 -43.5 -166 -130.5s-73 -185.5 -73 -295.5zM1180 -0.000976562c-75.333 0 -135.833 24 -181.5 72s-68.5 111.667 -68.5 191
c0 131.333 37.667 243.666 113 336.999s166 140 272 140c78.667 0 141.167 -23.667 187.5 -71s69.5 -111.333 69.5 -192c0 -133.333 -38 -246.166 -114 -338.499s-168.667 -138.5 -278 -138.5zM1077 251.999c0 -127.333 40.333 -191 121 -191
c61.333 0 116.5 43.5 165.5 130.5s73.5 184.5 73.5 292.5c0 130.667 -40.333 196 -121 196c-62 0 -117.333 -43.5 -166 -130.5s-73 -186.167 -73 -297.5zM182 -37.001l1362 1554h131l-1362 -1554h-131zM1911 -0.000976562c-75.333 0 -136 24 -182 72s-69 111.667 -69 191
c0 131.333 37.667 243.666 113 336.999s166.333 140 273 140c78 0 140.167 -23.667 186.5 -71s69.5 -111.333 69.5 -192c0 -133.333 -38 -246.166 -114 -338.499s-168.333 -138.5 -277 -138.5zM1807 253.999c0 -128.667 40.667 -193 122 -193c60 0 114.667 43.5 164 130.5
s74 184.167 74 291.5c0 131.333 -40.333 197 -121 197c-62 0 -117.333 -43.5 -166 -130.5s-73 -185.5 -73 -295.5z" />
    <glyph glyph-name="guilsinglleft" unicode="&#x2039;" horiz-adv-x="777" 
d="M521 99c-66 153.333 -162 301.333 -288 444c176 107.333 301 229 375 365l207 79c-46.667 -112 -172.667 -237 -378 -375c100 -120.667 185.333 -261 256 -421z" />
    <glyph glyph-name="guilsinglright" unicode="&#x203a;" horiz-adv-x="777" 
d="M471 987c66 -153.333 162 -301.333 288 -444c-176 -107.333 -301 -229 -375 -365l-207 -79c46.667 112 172.667 237 378 375c-98.667 118.667 -184 258.667 -256 420z" />
    <glyph glyph-name="Euro" unicode="&#x20ac;" horiz-adv-x="1128" 
d="M291 645c39.333 121.333 114.335 229.168 225.002 323.501s250.667 141.5 420 141.5c92 0 189.667 -13.667 293 -41l-55 -203h-70c5.33301 28 8 47.333 8 58c0 33.333 -20.333 61.333 -61 84s-90.667 34 -150 34c-188.667 0 -327.334 -132.333 -416.001 -397h467l-12 -61
h-473c-1.33301 -2.66699 -3.33301 -10.334 -6 -23.001l-10 -53v-8h473l-13 -62h-469v-37c0 -102 23.833 -182 71.5 -240s113.5 -87 197.5 -87c115.333 0 232.666 38 351.999 114l-14 -88c-140 -83.333 -277.333 -125 -412 -125c-124.667 0 -221.667 35.667 -291 107
s-104 171 -104 299c0 23.333 0.666992 42.333 2 57h-90l12 62h86v6c6.66699 34.667 12.667 60.667 18 78h-106l12 61h115z" />
    <glyph glyph-name="trademark" unicode="&#x2122;" horiz-adv-x="1851" 
d="M611 1419h-185l-26 -136h-87l39 197h691l-39 -197h-86l26 136h-185l-125 -629h136l-12 -62h-420l13 62h135zM1404 790l-95 538l-119 -600h-235l12 62h136l125 629h-136l13 61h334l77 -442l241 442h301l-12 -61h-136l-125 -629h136l-13 -62h-272l128 641l-318 -579h-42z
" />
    <glyph glyph-name="Omega" unicode="&#x2126;" horiz-adv-x="1718" 
d="M-4 -37l-17 54.002c72.667 62.667 133 102.167 181 118.5s128.333 24.5 241 24.5h147c-130.667 124.667 -196 284 -196 478c0 222 87.667 424 263 606s370 273 584 273c157.333 0 283.5 -46.833 378.5 -140.5s142.5 -217.5 142.5 -371.5
c0 -358.667 -187 -640.334 -561 -845.001h123l141 -1c112 0 196.333 20.667 253 62l-16 -79c-112 -111.333 -214.333 -167 -307 -167c-41.333 0 -78 1 -110 3l-353 22l133 160c134 48 247.833 153.833 341.5 317.5s140.5 338.5 140.5 524.5c0 132 -32.5 240.667 -97.5 326
s-148.167 128 -249.5 128c-154 0 -289.333 -81.833 -406 -245.5s-175 -353.167 -175 -568.5c0 -222.667 75 -383.334 225 -482.001l-139 -172l-461 11l-54 2c-43.333 0 -94 -12.667 -152 -38z" />
    <glyph glyph-name="partialdiff" unicode="&#x2202;" 
d="M368 1293c100.667 207.333 239.665 310.999 416.998 310.999c136.667 0 243 -60.667 319 -182s114 -291 114 -509c0 -269.333 -56.667 -493 -170 -671s-255.666 -267 -426.999 -267c-90.667 0 -163.5 31.833 -218.5 95.5s-82.5 147.834 -82.5 252.501
c0 168.667 57.667 325.667 173 471s240 218 374 218c110 0 206.333 -57.333 289 -172c0 394 -145.333 591 -436 591c-123.333 0 -240.666 -46 -351.999 -138zM1150 751.999c-72.667 135.333 -162.334 202.999 -269.001 202.999c-99.333 0 -186.666 -54.667 -261.999 -164
s-113 -235.666 -113 -378.999c0 -92 17.833 -166.5 53.5 -223.5s82.167 -85.5 139.5 -85.5c107.333 0 204.333 62.333 291 187s140 278.667 160 462z" />
    <glyph glyph-name="Delta" unicode="&#x2206;" horiz-adv-x="1679" 
d="M11 0l177.001 185c18.667 -3.33301 32.667 -5 42 -5c87.333 0 212.666 145 375.999 435l487 865l187 37l60 -333l143 -648c34.667 -155.333 75.667 -289.333 123 -402l-154 -159zM375.001 181l975 -23l-255 1137l-468 -795c-84 -142.667 -168 -249 -252 -319z" />
    <glyph glyph-name="product" unicode="&#x220f;" horiz-adv-x="1838" 
d="M74 0l150.001 148h18l52 -1c76 0 132.5 28.333 169.5 85s72.167 168 105.5 334l152 766h-70c-256.667 0 -385 -101.333 -385 -304c0 -24 3 -53.667 9 -89l-208 -97c60.667 425.333 371 638 931 638h705l180 -1c159.333 0 267.333 26 323.999 78l45 -34
c-61.333 -72.667 -127.666 -122.667 -198.999 -150s-170.666 -41 -297.999 -41h-59l-186 -935c-17.333 -88.667 -26 -165.667 -26 -231c0 -69.333 30.333 -104 91 -104c20 0 50.667 2.33301 92 7l-14 -69l-398 -25c-7.33301 26 -11 50 -11 72
c0 43.333 12.667 129.333 38 258l204 1027h-555l-139 -697c-24.667 -125.333 -61.334 -224.333 -110.001 -297s-124.334 -141.667 -227.001 -207l386 -8l-139 -148z" />
    <glyph glyph-name="summation" unicode="&#x2211;" horiz-adv-x="1332" 
d="M48 0l147.003 148c39.333 0 73.333 3.66699 102 11c90 24 225.333 155.667 406 395l169 223l-461 516l127 187h857l-86 -302h-66l4 21c4 20 6 37.667 6 53c0 62.667 -28.833 104 -86.5 124s-175.167 30 -352.5 30h-229l493 -559l-360 -410
c-135.333 -153.333 -233 -249 -293 -287l471 -23c30 -2 59.333 -3 88 -3c119.333 0 225.666 31 318.999 93l-14 -70c-94.667 -78 -166.834 -128.167 -216.501 -150.5s-114.167 -33.5 -193.5 -33.5c-32.667 0 -87.334 1.66699 -164.001 5z" />
    <glyph glyph-name="fraction" unicode="&#x2215;" horiz-adv-x="74" 
d="M-593 -37l1417 1554h138l-1419 -1554h-136z" />
    <glyph glyph-name="periodcentered" unicode="&#x2219;" 
d="M640 487l42 210h209l-41 -210h-210z" />
    <glyph glyph-name="radical" unicode="&#x221a;" horiz-adv-x="1456" 
d="M360 379l-22 53l298 156l268 -786l996 1827h65l-1050 -1925h-103l-264 771z" />
    <glyph glyph-name="infinity" unicode="&#x221e;" horiz-adv-x="1727" 
d="M950 495c-153.333 -215.333 -301.667 -323 -445 -323c-79.333 0 -144.5 28.833 -195.5 86.5s-76.5 131.5 -76.5 221.5c0 132 47.833 253.667 143.5 365s200.5 167 314.5 167c74.667 0 136.834 -24.5 186.501 -73.5s101.167 -135.833 154.5 -260.5
c167.333 222.667 314.333 334 441 334c77.333 0 141.166 -29 191.499 -87s75.5 -131.333 75.5 -220c0 -136.667 -46.5 -259.5 -139.5 -368.5s-197.833 -163.5 -314.5 -163.5c-75.333 0 -137 23 -185 69s-98.333 130.333 -151 253zM916.999 548
c-94 207.333 -188.668 311 -284.001 311c-71.333 0 -137.833 -40.5 -199.5 -121.5s-92.5 -167.833 -92.5 -260.5c0 -61.333 17.833 -111.333 53.5 -150s82.167 -58 139.5 -58c122.667 0 250.334 93 383.001 279zM1064 626
c95.333 -206.667 187.668 -309.999 277.001 -309.999c70 0 136.333 40.167 199 120.5s94 165.166 94 254.499c0 64 -18.333 115.833 -55 155.5s-84.334 59.5 -143.001 59.5c-113.333 0 -237.333 -93.333 -372 -280z" />
    <glyph glyph-name="integral" unicode="&#x222b;" 
d="M1163 1440c-13.333 6 -25.3311 8.99902 -35.998 8.99902c-49.333 0 -86.333 -31 -111 -93s-55 -200.333 -91 -415l-50 -295l-17 -85c-60.667 -306 -129.167 -525.333 -205.5 -658s-171.833 -199 -286.5 -199c-88.667 0 -133 36 -133 108c0 28 12.667 54 38 78
s52.666 36 81.999 36c46.667 0 70 -21.333 70 -64c0 -28 -17 -57.667 -51 -89c11.333 -5.33301 21.666 -8 30.999 -8c52.667 0 92.5 32.333 119.5 97s57.5 202.334 91.5 413.001c28.667 178 44.667 275.667 48 293l17 85c62 312 130.667 534.167 206 666.5
s170.333 198.5 285 198.5c85.333 0 128 -38 128 -114c0 -30 -12.333 -57.667 -37 -83s-51.667 -38 -81 -38c-43.333 0 -65 23.333 -65 70c0 32.667 16 61.667 48 87z" />
    <glyph glyph-name="approxequal" unicode="&#x2248;" 
d="M152 234c58 226.667 167.001 340 327.001 340c50 0 130 -31.333 240 -94l111 -64c92 -53.333 161.333 -80 208 -80c76 0 141.667 64.667 197 194h62c-64.667 -217.333 -174.334 -326 -329.001 -326c-62.667 0 -141.667 27.333 -237 82l-110 63
c-103.333 60.667 -173 91 -209 91c-77.333 0 -143.333 -68.667 -198 -206h-62zM235.001 654c58 226 167.002 339 327.002 339c50.667 0 130.667 -31.333 240 -94l112 -64c91.333 -52.667 160.666 -79 207.999 -79c76 0 141.333 64.667 196 194h62
c-65.333 -218 -175 -327 -329 -327c-62.667 0 -141.667 27.333 -237 82l-110 63c-102.667 60.667 -172.334 91 -209.001 91c-77.333 0 -143.333 -68.333 -198 -205h-62z" />
    <glyph glyph-name="notequal" unicode="&#x2260;" 
d="M177 364l22 111h422l184 234h-559l22 111h623l169 222h123l-167 -222h338l-23 -111h-401l-181 -234h536l-22 -111h-601l-170 -222h-128l169 222h-356z" />
    <glyph glyph-name="lessequal" unicode="&#x2264;" 
d="M105 0l22 111h1086l-22 -111h-1086zM1443 1271l-30 -135l-916 -420l754 -415l-23 -116l-978 543z" />
    <glyph glyph-name="greaterequal" unicode="&#x2265;" 
d="M105 0l22 111h1086l-22 -111h-1086zM142 185l30 134l916 421l-753 414l23 117l977 -543z" />
    <glyph glyph-name="lozenge" unicode="&#x25ca;" 
d="M648 0l-435 543l651 543l435 -543zM680 159l470 384l-318 381l-461 -381z" />
    <glyph glyph-name="fi" unicode="&#xf001;" horiz-adv-x="1414" 
d="M-426 -653l143 149c64 -26 129.333 -39 196 -39c95.333 0 168.833 32.333 220.5 97s90.167 171.667 115.5 321l192 1137h-224l70 74h169c42 202 130.5 363.5 265.5 484.5s294.167 181.5 477.5 181.5c58 0 111.667 -5.66699 161 -17l-143 -152
c-61.333 38.667 -125 58 -191 58c-99.333 0 -173.333 -29.333 -222 -88s-88.667 -167 -120 -325l-29 -142h376l345 24l-76 -320l-98 -494c-15.333 -76.667 -23 -126.667 -23 -150c0 -42 19.667 -63 59 -63c66 0 165.333 73.333 298 220l-18 -93
c-145.333 -156.667 -276.333 -235 -393 -235c-96.667 0 -145 50.333 -145 151c0 34 8 90.667 24 170l91 456c13.333 68.667 20 119.667 20 153c0 71.333 -64 107 -192 107h-282l-146 -860c-44 -261.333 -131.667 -463 -263 -605s-296 -213 -494 -213
c-52 0 -106.667 4.33301 -164 13zM1171 1284l66 136l283 184l-86 -184z" />
    <glyph glyph-name="fl" unicode="&#xf002;" horiz-adv-x="1432" 
d="M-426 -649l143.997 145.001c64.667 -26 130.334 -39 197.001 -39c94.667 0 168 32.333 220 97s90.667 171.667 116 321l192 1137h-225l71 74h169c44.667 178.667 134.834 324 270.501 436s289.834 168 462.501 168c89.333 0 190.666 -22.667 303.999 -68
c126.667 86.667 263.667 130 411 130c59.333 0 119.666 -5.66699 180.999 -17l-135 -138c-77.333 37.333 -144.333 56 -201 56c-103.333 0 -184.166 -41.333 -242.499 -124s-107.833 -226.334 -148.5 -431.001l-160 -802c-15.333 -76.667 -23 -126.667 -23 -150
c0 -42 19.667 -63 59 -63c66.667 0 166.334 73.333 299.001 220l-19 -93c-145.333 -156.667 -276 -235 -392 -235c-96.667 0 -145 50.333 -145 151c0 34 8 90.667 24 170l131 660c50.667 252.667 125 432.667 223 540c-95.333 63.333 -190.333 95 -285 95
c-119.333 0 -208 -30.5 -266 -91.5s-103 -171.5 -135 -331.5l-17 -82h374l-80 -85c-88 7.33301 -173.333 11 -256 11h-52l-145 -855c-43.333 -261.333 -130.833 -463.833 -262.5 -607.5s-295.167 -215.5 -490.5 -215.5c-52.667 0 -108.667 5.66699 -168 17z" />
    <glyph glyph-name="f000" horiz-adv-x="1024" 
d="M128 0v1480h768v-1480h-768zM256 128h512v1224h-512v-1224z" />
    <glyph glyph-name="glyph1" horiz-adv-x="0" 
 />
    <glyph glyph-name="glyph2" horiz-adv-x="680" 
 />
  </font>
</defs>
</svg>
